<?xml version="1.0" encoding="UTF-8"?>
<svg id="Ebene_2" data-name="Ebene 2" xmlns="http://www.w3.org/2000/svg" xmlns:xlink="http://www.w3.org/1999/xlink" viewBox="0 0 29.58 48.6">
  <defs>
    <style>
      .cls-1 {
        fill: #3d4654;
      }

      .cls-2 {
        fill: #ff3cd0;
      }

      .cls-3 {
        fill: #c87cfa;
      }

      .cls-4 {
        fill: url(#Unbenannter_Verlauf_65);
      }

      .cls-5 {
        fill: #207cfa;
      }

      .cls-6 {
        fill: url(#Unbenannter_Verlauf_62);
      }

      .cls-7 {
        fill: #3898ff;
      }

      .cls-8 {
        fill: url(#Unbenannter_Verlauf_66);
      }

      .cls-9 {
        fill: #fafafa;
      }

      .cls-10 {
        fill: #f7f7f7;
      }

      .cls-11 {
        fill: url(#Unbenannter_Verlauf_61);
      }

      .cls-12 {
        fill: url(#Unbenannter_Verlauf_63);
      }
    </style>
    <linearGradient id="Unbenannter_Verlauf_61" data-name="Unbenannter Verlauf 61" x1="27.97" y1="29.01" x2="15.01" y2="32.31" gradientUnits="userSpaceOnUse">
      <stop offset="0" stop-color="#207cfa"/>
      <stop offset=".83" stop-color="#3898ff"/>
    </linearGradient>
    <linearGradient id="Unbenannter_Verlauf_62" data-name="Unbenannter Verlauf 62" x1="5.01" y1="9.02" x2="28.7" y2="16.59" gradientUnits="userSpaceOnUse">
      <stop offset=".32" stop-color="#ff3cd0"/>
      <stop offset="1" stop-color="#c87cfa"/>
    </linearGradient>
    <linearGradient id="Unbenannter_Verlauf_63" data-name="Unbenannter Verlauf 63" x1="14.3" y1="27.47" x2="21.69" y2="36.12" gradientUnits="userSpaceOnUse">
      <stop offset="0" stop-color="#207cfa"/>
      <stop offset=".63" stop-color="#3898ff"/>
      <stop offset="1" stop-color="#f7f7f7"/>
    </linearGradient>
    <linearGradient id="Unbenannter_Verlauf_65" data-name="Unbenannter Verlauf 65" x1="16.4" y1="32.01" x2="10.29" y2="36.15" gradientUnits="userSpaceOnUse">
      <stop offset="0" stop-color="#207cfa"/>
      <stop offset="1" stop-color="#f7f7f7"/>
    </linearGradient>
    <linearGradient id="Unbenannter_Verlauf_66" data-name="Unbenannter Verlauf 66" x1="12.24" y1="28.24" x2="11.24" y2="42.82" gradientUnits="userSpaceOnUse">
      <stop offset="0" stop-color="#3898ff"/>
      <stop offset=".55" stop-color="#3898ff"/>
      <stop offset="1" stop-color="#f7f7f7"/>
    </linearGradient>
  </defs>
  <g id="Ebene_15" data-name="Ebene 15">
    <path class="cls-2" d="M19.46,9.54l-.1,3.46.56.33c-1.15-.41-3.26-.05-4.54-.21-.1.04-.07,1.25-.08,1.44-.1-.05-.24.05-.26.05-.22,0-.52-.1-.77-.05-.02-.47-.06-.96-.08-1.44l-2.18.03v10.51c-.08.18-.6.02-.72.03v-9.1l-.77-.03c0-.19.03-1.39-.03-1.44l-2.23.03c.02,2.26-.02,4.53,0,6.79l-.15-.13c.18.55-.83.23-.92.36-.18.26.11,5.36-.05,5.59-.05.08-.53-.01-.59.03-.05.04,0,.49-.13.56,0-2.11,0-4.22,0-6.33l-5.74-.08s0-.04,0-.05h2.03C6.89,14.38,10.86,8.66,14.97,3.08c1.61,2.07,2.99,4.31,4.49,6.46Z"/>
    <path class="cls-11" d="M22.43,13.79c1.27,1.84,2.62,3.65,3.85,5.51.13.2.33.44.31.69-1.13,0-2.26-.02-3.38.03,0,5.46,0,10.92,0,16.38-.12.04-.12.11,0,.15,0,.13.05.31.05.36,0,3.24-.1,6.48-.05,9.72-.19.4-.61.48-.92.15l-.05-9.79c-.5-.27-.57.11-.87.36v-4.97c-.28-.36-.55-.35-.92-.13,0-1.28.23-4.58,0-5.61-.12-.54-.77-.66-1.03-.15.02,3.02-.02,6.03,0,9.05-.24-.42-.91-.39-1.03.13-.25,1.14.07,4.07.05,5.41,0,.05-.1.17-.1.18-.01.79.38,2.57-.49,2.95-.2.09-.27.08-.38-.1-.14-.2-.15-3.33-.15-3.87-.07-4.19.05-8.39,0-12.59.15,0,1.04.02,1.08-.03v-5.38c2,.13,3.6-.62,3.79-2.77.04-.38.07-2.98,0-3.2.32-.58.11-1.59.1-2.28,0-.15-.03-.2.15-.18Z"/>
    <path class="cls-6" d="M28.94,19.94c-.78.08-1.57.05-2.36.05.02-.25-.18-.5-.31-.69-1.23-1.86-2.58-3.67-3.85-5.51-.63-.92-1.26-1.85-1.9-2.77-.35-.5-.73-.99-1.08-1.49-1.49-2.15-2.87-4.39-4.49-6.46C10.86,8.66,6.89,14.38,2.72,19.89H.69L15.13,0c4.54,6.69,9.35,13.21,13.82,19.94Z"/>
    <path class="cls-3" d="M8.28,19.94c.01,1.13-.15,2.83,0,3.87.05.32.3.64.36.95.24,1.16.12,2.2,1.54,2.82l-.1,1.95c-.15-.32-.83-.28-.92.08-.15.56,0,2.81,0,3.56-.77-.18-.92.23-.97.87-.08,1.04.06,2.18,0,3.23-.15-.14-.3-.37-.49-.46-.5-.24-.5.23-.51-.77-.08.4.08.59-.18.92-.07.09-.48.36-.56.56-.06-3.72.01-7.45,0-11.18.12-.08.08-.53.13-.56.06-.04.54.05.59-.03.16-.23-.13-5.33.05-5.59.09-.13,1.11.19.92-.36l.15.13Z"/>
    <path class="cls-12" d="M15.3,14.56c-.1,3.73.07,7.47,0,11.2.03.07.84.12.97.13v1.67c.06.13.85.08,1.03.08.05,4.19-.07,8.39,0,12.59,0,.54.02,3.67.15,3.87-.39.3-.75.44-1.03-.08l-.1-8.72c-.21-.44-.71-.43-1.03-.13-.08-.02-.07-.21-.1-.26l.1-9.05-.26-.03v-11.23s.16-.1.26-.05Z"/>
    <path class="cls-4" d="M14.23,33.17c-.28-.32-.8-.41-1.03.03-.03,2.61.04,5.21,0,7.82-.25-.01-.1.31-.18.36-.03.02-.62,0-.74.05-.09-1.01-.09-2.09-.1-3.1-.03-3.51.06-7.02,0-10.54.8-.03,1.46-.04,2.1-.62.05,2-.05,4-.05,6Z"/>
    <path class="cls-8" d="M12.18,27.79c.06,3.52-.03,7.03,0,10.54,0,1.02.01,2.09.1,3.1.02.18-.16.38.15.38l-.26.05c.06.46-.08,1.13,0,1.56-.35.41-.84.34-1.03-.18,0-2.37,0-4.73,0-7.1,0-2.78,0-5.57,0-8.36.3.03.72.01,1.03,0Z"/>
    <path class="cls-1" d="M20.43,32.25c.01,3.08-.01,6.17,0,9.25-.11.36-.47.49-.79.33-.3-.14-.23-.6-.23-.87-.04-1.8.01-3.63,0-5.43-.02-3.02.02-6.03,0-9.05.26-.5.91-.38,1.03.15.23,1.04,0,4.33,0,5.61Z"/>
    <path class="cls-1" d="M6.43,26.35c.01,3.72-.06,7.46,0,11.18,0,.13-.05.19-.05.21l-.51-.03v-16.71l-5.87-.08c.14-.38.47-.65.69-.97l5.74.08c0,2.11,0,4.22,0,6.33Z"/>
    <path class="cls-1" d="M28.94,19.94c.22.33.51.65.64,1.03l-5.87.03v15.89l-.46.03s-.05-.23-.05-.36c0-.05,0-.1,0-.15,0-5.46,0-10.92,0-16.38,1.13-.05,2.26-.02,3.38-.03.79,0,1.58.03,2.36-.05Z"/>
    <path class="cls-1" d="M15.2,34.92s.02.24.1.26l-.05,9c-.29.39-.74.4-.97-.05,0-3.08,0-6.17,0-9.25.28-.26.7-.29.92.05Z"/>
    <path class="cls-1" d="M10.07,29.53c.07,2.18.08,4.38.05,6.56,0,.53.1,1.99,0,2.38-.09.36-.76.42-.92.1-.13-.26-.05-3.73-.05-4.33,0-.36,0-.72,0-1.08,0-.76-.15-3,0-3.56.09-.35.77-.4.92-.08Z"/>
    <path class="cls-7" d="M15.2,34.92c-.23-.34-.64-.31-.92-.05,0-.56-.05-1.13-.05-1.69,0-2,.11-4,.05-6,.26-.23.72-1,.77-1.33l.26.03-.1,9.05Z"/>
    <path class="cls-3" d="M11.15,27.79c0,2.78,0,5.57,0,8.36-.3-.33-.7-.37-1.03-.05.03-2.18.02-4.38-.05-6.56l.1-1.95c.31.14.63.18.97.21Z"/>
    <path class="cls-10" d="M19.41,35.53c.01,1.8-.04,3.64,0,5.43-.29.4-.59.27-.97.1.02-1.34-.3-4.27-.05-5.41.11-.52.79-.55,1.03-.13Z"/>
    <path class="cls-1" d="M9.49,40.86c.28-.06.47.08.64.28v4c-.13.4-.88.38-.97,0-.05-.19-.05-3.76,0-3.95.02-.09.24-.31.33-.33Z"/>
    <path class="cls-5" d="M6.67,41.74s.64-.01.67,0c.03.04.11.09.13.13.06.17.05,3.42,0,3.59-.11.37-.85.47-.97,0-.05-.17-.06-3.37,0-3.54,0-.01.17-.18.18-.18Z"/>
    <path class="cls-1" d="M17.64,45.22c.35-.09.67.08.74.44.04.21.04,2.31,0,2.51-.13.58-.96.58-1.08,0-.04-.21-.04-2.3,0-2.51.03-.13.2-.4.33-.44Z"/>
    <path class="cls-10" d="M7.41,38.35c-.02.54.18,1.94.05,2.38-.1.34-.87.42-.97,0s.01-1.79,0-2.33c.33-.15.57-.22.92-.05Z"/>
    <path class="cls-7" d="M13.2,41.02c0,.53.09,2.15-.05,2.54-.06.18-.87.43-.97-.13-.08-.43.06-1.1,0-1.56l.26-.05c-.31,0-.14-.21-.15-.38.13-.06.71-.03.74-.05.08-.05-.07-.37.18-.36Z"/>
    <path class="cls-7" d="M12.46,45.07s.36-.01.41,0c.51.13.57,2.5-.46,2-.35-.17-.36-1.88.05-2Z"/>
    <path class="cls-5" d="M7,36.97c.32.1-.01.61.46.56-.02.04-.05.7-.05.82-.35-.17-.6-.1-.92.05,0-.24-.1-.59-.1-.67,0-.01.05-.07.05-.21.08-.2.49-.47.56-.56Z"/>
    <path class="cls-3" d="M9.15,33.17c0,.36,0,.72,0,1.08-.41.15-.64,0-.97-.21.05-.64.21-1.05.97-.87Z"/>
    <path class="cls-1" d="M19.48,44.25c.47-.02,1.23-.13.9.59-.29.65-1.34.08-.9-.59Z"/>
    <path class="cls-5" d="M8.18,37.27c-.05.19-.56-.14-.72.26-.48.04-.14-.47-.46-.56.26-.34.1-.52.18-.92.01,1,0,.53.51.77.19.09.34.32.49.46Z"/>
    <path class="cls-2" d="M19.46,9.54c.35.5.73.99,1.08,1.49l-.21,2.51c-.09-.06-.31-.17-.41-.21l-.56-.33.1-3.46Z"/>
    <path class="cls-3" d="M20.53,11.02c.64.92,1.26,1.85,1.9,2.77-.19-.02-.16.03-.15.18,0,.69.22,1.7-.1,2.28-.05-.18-.63-.43-.82-.46-.06-.93-.2-1.7-1.03-2.26l.21-2.51Z"/>
    <path class="cls-5" d="M23.2,36.56c-.12-.04-.12-.11,0-.15,0,.05,0,.1,0,.15Z"/>
    <g>
      <path class="cls-9" d="M10.54,14.56c.05,3-.04,6,0,9,.1.33.53.13.77.13.12,0,.64.16.72-.03v-10.51l2.18-.03c.01.47.06.96.08,1.44.09,2.47.29,6.88,0,9.2-.08.6-.5,1.32-1,1.67-1.07.74-3.91.66-4.64-.67-.06-.31-.31-.62-.36-.95-.15-1.04.01-2.75,0-3.87-.02-2.26.02-4.53,0-6.79l2.23-.03c.06.04.02,1.24.03,1.44Z"/>
      <path class="cls-1" d="M15.05,14.61v11.23c-.05.34-.51,1.1-.77,1.33-.64.58-1.3.58-2.1.62-.31.01-.72.03-1.03,0-.34-.03-.66-.07-.97-.21-1.41-.62-1.3-1.66-1.54-2.82.73,1.33,3.57,1.4,4.64.67.5-.35.92-1.06,1-1.67.29-2.33.09-6.73,0-9.2.25-.05.55.05.77.05Z"/>
      <path class="cls-1" d="M11.31,23.69c-.24,0-.67.21-.77-.13-.04-3,.05-6,0-9l.77.03v9.1Z"/>
      <path class="cls-1" d="M22.18,16.25c.07.23.04,2.82,0,3.2-.2,2.15-1.79,2.9-3.79,2.77v5.38s-.93.03-1.08.03c-.17,0-.97.05-1.03-.08v-1.67c.14,0,1.3-.06,1.33-.13v-5.38c1.21-.2,2.28.19,3.18-.87.74-.87.63-2.61.56-3.72.19.03.77.29.82.46Z"/>
      <g>
        <path class="cls-9" d="M19.92,13.33c.1.04.32.14.41.21.83.55.97,1.33,1.03,2.26.07,1.11.17,2.85-.56,3.72-.9,1.06-1.97.68-3.18.87v5.38c-.03.07-1.19.13-1.33.13-.13,0-.94-.06-.97-.13.07-3.73-.1-7.47,0-11.2,0-.19-.02-1.4.08-1.44,1.28.15,3.38-.21,4.54.21Z"/>
        <path class="cls-1" d="M19.1,17.33c-.91-.1-.71.12-.72.87-.13,0-.71.05-.77-.08v-2.77h1.49c0,.66,0,1.32,0,1.97Z"/>
        <path class="cls-7" d="M19.1,17.33c0,.83.29.86-.72.87,0-.75-.19-.97.72-.87Z"/>
      </g>
    </g>
  </g>
</svg>