<?xml version="1.0" encoding="UTF-8"?>
<svg id="Ebene_2" xmlns="http://www.w3.org/2000/svg" version="1.1" xmlns:xlink="http://www.w3.org/1999/xlink" viewBox="0 0 747.5 287.5">
  <!-- Generator: Adobe Illustrator 29.7.0, SVG Export Plug-In . SVG Version: 2.1.1 Build 138)  -->
  <defs>
    <linearGradient id="Unbenannter_Verlauf_2" data-name="Unbenannter Verlauf 2" x1="275" y1="150.5" x2="453.3" y2="150.5" gradientTransform="translate(0 290) scale(1 -1)" gradientUnits="userSpaceOnUse">
      <stop offset="0" stop-color="#4f7cdf"/>
      <stop offset="1" stop-color="#ff3cd0"/>
    </linearGradient>
    <linearGradient id="Unbenannter_Verlauf_21" data-name="Unbenannter Verlauf 2" y1="74.7" y2="74.7" xlink:href="#Unbenannter_Verlauf_2"/>
    <linearGradient id="Unbenannter_Verlauf_3" data-name="Unbenannter Verlauf 3" x1="586.4" y1="137.2" x2="746.4" y2="137.2" gradientTransform="translate(0 290) scale(1 -1)" gradientUnits="userSpaceOnUse">
      <stop offset="0" stop-color="#1962dc" stop-opacity="0"/>
      <stop offset="0" stop-color="#1962dc" stop-opacity=".4"/>
      <stop offset="0" stop-color="#1962dc" stop-opacity=".9"/>
      <stop offset=".2" stop-color="#4552cd" stop-opacity=".9"/>
      <stop offset=".3" stop-color="#7642be" stop-opacity=".9"/>
      <stop offset=".4" stop-color="#a034b1" stop-opacity="1"/>
      <stop offset=".5" stop-color="#c228a6" stop-opacity="1"/>
      <stop offset=".6" stop-color="#dd1f9d" stop-opacity="1"/>
      <stop offset=".8" stop-color="#ef1997" stop-opacity="1"/>
      <stop offset=".9" stop-color="#fb1594"/>
      <stop offset="1" stop-color="#ff1493"/>
    </linearGradient>
    <linearGradient id="Unbenannter_Verlauf_4" data-name="Unbenannter Verlauf 4" x1="455.2" y1="137.2" x2="601.1" y2="137.2" gradientTransform="translate(0 290) scale(1 -1)" gradientUnits="userSpaceOnUse">
      <stop offset="0" stop-color="#1962dc" stop-opacity="0"/>
      <stop offset=".1" stop-color="#1962dc" stop-opacity=".1"/>
      <stop offset=".2" stop-color="#1962dc" stop-opacity=".4"/>
      <stop offset=".3" stop-color="#1962dc" stop-opacity=".9"/>
      <stop offset=".4" stop-color="#594cc7" stop-opacity=".9"/>
      <stop offset=".6" stop-color="#9338b5" stop-opacity=".9"/>
      <stop offset=".7" stop-color="#c228a6" stop-opacity="1"/>
      <stop offset=".8" stop-color="#e31d9b" stop-opacity="1"/>
      <stop offset=".9" stop-color="#f71695"/>
      <stop offset="1" stop-color="#ff1493"/>
    </linearGradient>
    <linearGradient id="Unbenannter_Verlauf_41" data-name="Unbenannter Verlauf 4" y1="137.2" y2="137.2" xlink:href="#Unbenannter_Verlauf_4"/>
    <linearGradient id="Unbenannter_Verlauf_5" data-name="Unbenannter Verlauf 5" x1="135.3" y1="104.9" x2="135.3" y2="104.9" gradientTransform="translate(0 290) scale(1 -1)" gradientUnits="userSpaceOnUse">
      <stop offset="0" stop-color="#1962dc"/>
      <stop offset=".2" stop-color="#534ec9"/>
      <stop offset=".4" stop-color="#9039b6"/>
      <stop offset=".6" stop-color="#bf29a7"/>
      <stop offset=".8" stop-color="#e21d9c"/>
      <stop offset=".9" stop-color="#f71695"/>
      <stop offset="1" stop-color="#ff1493"/>
    </linearGradient>
    <linearGradient id="Unbenannter_Verlauf_51" data-name="Unbenannter Verlauf 5" x1="-1.4" y1="137.2" x2="144.5" y2="137.2" xlink:href="#Unbenannter_Verlauf_5"/>
    <linearGradient id="Unbenannter_Verlauf" data-name="Unbenannter Verlauf" x1="150.7" y1="101.5" x2="291.5" y2="101.5" gradientTransform="translate(0 290) scale(1 -1)" gradientUnits="userSpaceOnUse">
      <stop offset="0" stop-color="#1962dc" stop-opacity="0"/>
      <stop offset="0" stop-color="#1962dc" stop-opacity=".5"/>
      <stop offset="0" stop-color="#1962dc" stop-opacity=".9"/>
      <stop offset="0" stop-color="#1f5fd9" stop-opacity=".9"/>
      <stop offset=".2" stop-color="#534ec9" stop-opacity=".9"/>
      <stop offset=".3" stop-color="#813eba" stop-opacity=".9"/>
      <stop offset=".4" stop-color="#a731ae" stop-opacity="1"/>
      <stop offset=".5" stop-color="#c726a4" stop-opacity="1"/>
      <stop offset=".6" stop-color="#df1e9c" stop-opacity="1"/>
      <stop offset=".7" stop-color="#f11897" stop-opacity="1"/>
      <stop offset=".8" stop-color="#fb1594"/>
      <stop offset="1" stop-color="#ff1493"/>
    </linearGradient>
    <linearGradient id="Unbenannter_Verlauf_52" data-name="Unbenannter Verlauf 5" x1="-1.4" y1="101.5" x2="144.5" y2="101.5" xlink:href="#Unbenannter_Verlauf_5"/>
    <linearGradient id="Unbenannter_Verlauf1" data-name="Unbenannter Verlauf" y1="174.8" y2="174.8" xlink:href="#Unbenannter_Verlauf"/>
    <linearGradient id="Unbenannter_Verlauf_53" data-name="Unbenannter Verlauf 5" x1="-1.4" y1="174.8" x2="144.5" y2="174.8" xlink:href="#Unbenannter_Verlauf_5"/>
  </defs>
  <path d="M198.4,103.3h-30v55.4h30c22.5,0,33.8-10.4,33.8-27.7s-11.4-27.7-33.8-27.7Z" fill="none"/>
  <polygon points="338.7 170.1 388.9 170.1 363.8 109.4 338.7 170.1" fill="none"/>
  <path d="M656.8,103.5h-33.6v98.6h33.6c31.6,0,52.3-18.9,52.3-49.3s-20.7-49.3-52.3-49.3Z" fill="none"/>
  <path d="M300.8,131c0-35.7-26.6-57.7-69.1-57.7h-68.8v14.5c7.6,7,11.4,16.2,11.4,26.9s-4.2,21-11.4,28v11.3c12,7,19.4,19,19.4,35h0c0,15.1-6.6,26.6-19.4,34v9.4h36.8v-44.3h33.8l30.7,44.3h0s39.5,0,39.5,0l-35.7-51.1c20.7-8.9,32.7-26.3,32.7-50.2ZM229.7,158.7h-30v-55.4h30c22.5,0,33.8,10.5,33.8,27.7s-11.4,27.7-33.8,27.7Z" fill="#ff3cd0"/>
  <polygon points="363.7 109 338.4 170.1 338.7 170.1 363.8 109.4 388.9 170.1 389 170.1 363.7 109" fill="url(#Unbenannter_Verlauf_2)"/>
  <polygon points="326.6 198.2 312.5 232.4 312.7 232.4 326.8 198.3 400.6 198.3 400.6 198.3 400.6 198.3 410.5 222.2 400.6 198.2 326.6 198.2" fill="url(#Unbenannter_Verlauf_21)"/>
  <path d="M658.7,73.3h-57.6v159h57.6c52,0,87.7-31.4,87.7-79.5s-35.7-79.5-87.7-79.5ZM656.8,202.1h-33.6v-98.6h33.6c31.6,0,52.3,18.8,52.3,49.3s-20.7,49.3-52.3,49.3Z" fill="url(#Unbenannter_Verlauf_3)"/>
  <path d="M586.4,73.3h-21.7v96.6l-79.1-96.6h0l6,7.2h0v54.6l.3.4v.7l78.9,96.1h30.2s-14.7,0-14.7,0V73.3Z" fill="url(#Unbenannter_Verlauf_4)"/>
  <rect x="586.4" y="73.3" width="14.7" height="159" fill="url(#Unbenannter_Verlauf_3)"/>
  <rect x="586.4" y="73.3" width="14.7" height="159" fill="url(#Unbenannter_Verlauf_41)"/>
  <polygon points="338.6 170.3 389 170.3 388.9 170.1 338.7 170.1 338.6 170.3" fill="#ff1493"/>
  <polygon points="345.7 72.7 274.7 232.4 275 232.4 345.9 73.3 382.2 73.3 453.3 232.4 453.4 232.4 382.1 72.7 345.7 72.7" fill="#ff1493"/>
  <polygon points="414.7 232.4 414.7 232.4 410.5 222.2 414.7 232.4" fill="#ff1493"/>
  <path d="M345.9,73.3l-70.9,159h37.5l14.1-34.2h74,0l9.9,24,4.2,10.2h38.6l-71.1-159h-36.4ZM389,170.3h-50.4v-.2c0,0-.2,0-.2,0l25.3-61.1,25.3,61.1h0v.2Z" fill="#ff1493"/>
  <polygon points="491.6 232.4 455.2 232.4 455.2 116.2 454.7 115.6 454.7 232.4 491.6 232.4 491.6 153.3 491.6 153.3 491.6 232.4" fill="#ff1493"/>
  <polygon points="455.2 232.4 491.6 232.4 491.6 153.3 455.2 116.2 455.2 232.4" fill="#ff1493"/>
  <path d="M455.2,73.4h30.4l-.5-.7h-23.2c-.3,0-7.1,0-7.1,0v24.5l.5.5v-24.3Z" fill="#ff1493"/>
  <polygon points="455.2 97.7 491.6 135.3 491.6 80.7 491.6 80.7 485.6 73.4 455.2 73.4 455.2 97.7" fill="#ff1493"/>
  <g>
    <path d="M153,154v-11.3c-2.8,2.7-6.1,5.1-9.7,7,3.5,1.1,6.8,2.6,9.7,4.3Z" fill="none"/>
    <path d="M127.4,119.7c0-12.5-9.8-18.6-27.7-18.6h-36.6v37.5h36.6c18,0,27.7-6.4,27.7-18.9Z" fill="none"/>
    <path d="M106,165.3h-42.9v39.3h42.9c19.1,0,29.3-5.9,29.3-19.5s-10.2-19.8-29.3-19.8Z" fill="none"/>
    <polygon points="135.3 185.1 135.3 185.1 135.3 185.1 135.3 185.1" fill="url(#Unbenannter_Verlauf_5)"/>
    <path d="M143.3,149.7c3.6-1.9,6.9-4.3,9.7-7v-54.8c-9.9-9.1-26.3-14.5-48.8-14.5H26.5v159h82.3c18.9,0,33.7-3.3,44.3-9.4v-69.1c-3-1.7-6.2-3.2-9.7-4.3ZM63.1,101h36.6c18,0,27.7,6.1,27.7,18.6s-9.8,18.9-27.7,18.9h-36.6v-37.5ZM135.3,185.1h0c0,13.6-10.2,19.5-29.3,19.5h-42.9v-39.3h42.9c19.1,0,29.3,6.4,29.3,19.8h0s0,0,0,0Z" fill="url(#Unbenannter_Verlauf_51)"/>
    <path d="M172.4,189h0c0-16-7.3-28-19.4-35v69.1c12.8-7.4,19.4-19,19.4-34Z" fill="url(#Unbenannter_Verlauf)"/>
    <path d="M172.4,189h0c0-16-7.3-28-19.4-35v69.1c12.8-7.4,19.4-19,19.4-34Z" fill="url(#Unbenannter_Verlauf_52)"/>
    <path d="M164.4,114.7c0-10.7-3.8-19.9-11.4-26.9v54.8c7.2-7,11.4-16.5,11.4-28Z" fill="url(#Unbenannter_Verlauf1)"/>
    <path d="M164.4,114.7c0-10.7-3.8-19.9-11.4-26.9v54.8c7.2-7,11.4-16.5,11.4-28Z" fill="url(#Unbenannter_Verlauf_53)"/>
  </g>
  <polygon points="491.6 152.5 491.6 153.3 491.6 153.3 491.6 152.5 491.6 152.5" fill="#1962dc"/>
  <polygon points="455.2 115.9 454.7 115.4 454.7 115.6 455.2 116.2 455.2 115.9" fill="#1962dc"/>
</svg>