<?xml version="1.0" encoding="UTF-8"?>
<svg id="svg9256" xmlns="http://www.w3.org/2000/svg" baseProfile="tiny" version="1.2" xmlns:svg="http://www.w3.org/2000/svg" xmlns:xlink="http://www.w3.org/1999/xlink" viewBox="0 0 82.4 98.9">
  <!-- Generator: Adobe Illustrator 29.7.0, SVG Export Plug-In . SVG Version: 2.1.1 Build 138)  -->
  <path id="path8943" d="M82.4,95.6c0,1.8-1.5,3.3-3.3,3.3H3.3c-1.8,0-3.3-1.5-3.3-3.3V3.3C0,1.5,1.5,0,3.3,0h75.8c1.8,0,3.3,1.5,3.3,3.3,0,0,0,92.3,0,92.3Z" fill="#ffc800"/>
  <path id="path8945" d="M78.4,92.8c0,1.2-1,2.2-2.2,2.2H6.2c-1.2,0-2.2-1-2.2-2.2V6.1c0-1.2,1-2.2,2.2-2.2h70.1c1.2,0,2.2,1,2.2,2.2,0,0,0,86.7,0,86.7Z" fill="#ff7800"/>
  <path id="path8947" d="M75.5,90.5c0,.9-.7,1.6-1.6,1.6H8.5c-.9,0-1.6-.7-1.6-1.6V8.3c0-.9.7-1.6,1.6-1.6h65.4c.9,0,1.6.7,1.6,1.6v82.2Z" fill="#d70000"/>
  <path id="path8949" d="M73.2,88.6c0,.7-.6,1.2-1.2,1.2H10.5c-.7,0-1.2-.6-1.2-1.2V10.2c0-.7.6-1.2,1.2-1.2h61.5c.7,0,1.2.6,1.2,1.2v78.4Z" fill="#00005f"/>
  <path id="path8951" d="M40.9,83.8c-2.3,0-2.7-1-2.7-3.4v-3.8h1.9v4.3c0,1.1,0,1.6.9,1.6s.9-.4.9-1.6v-4.3h1.8v3.8c0,2.6-.7,3.4-2.8,3.4ZM42.2,75.9c-.5,0-.9-.4-.9-.9s.4-1,.9-1,.9.5.9,1-.4.9-.9.9ZM39.6,75.9c-.5,0-.9-.4-.9-.9s.4-1,.9-1,.9.5.9,1-.4.9-.9.9ZM45,83.6v-7h2c2.5,0,3.6.5,3.6,3.5s-1.1,3.5-3.6,3.5h-2ZM47.3,82.4c1,0,1.4-.6,1.4-2.3s-.4-2.3-1.4-2.3h-.4v4.6s.4,0,.4,0ZM34.3,83.8c-1.1,0-1.9-.2-2.3-.3l.3-1.3c.7.2,1.2.3,1.6.3s1.1,0,1.1-.7-.5-.7-1-1h0c-.8-.5-1.7-1-1.7-2.1s.9-2,2.6-2,1.4,0,2.1.3l-.3,1.2c-.2,0-.8-.3-1.5-.3s-1,.2-1,.7.5.7,1.1,1h0c.8.5,1.8,1,1.8,2.1s-.9,2.1-2.8,2.1ZM26.2,72.4c-.2-.8-.5-2.2-.7-2.8h-5.5c-.2.6-.5,2-.7,2.8h-4.9c2.1-6.6,3-9.3,5.4-15.2h6c2.3,5.8,3.3,8.6,5.4,15.2,0,0-5,0-5,0ZM20.7,66.4h4.1c-.6-2-1.7-5.4-2-6.4-.4.9-1.5,4.3-2.1,6.4ZM36.5,72.4c-2.6,0-4-1.5-4-4.1v-11.1h4.6v10.2c0,1.3.4,1.6,1.7,1.6h4.5l.7,3.4h-7.5ZM62.6,57.2h4.6v15.2h-4.6v-15.2ZM45.8,72.4v-15.2h6.3c4.7,0,7.9,1.9,7.9,7.5s-2.6,7.7-7.7,7.7c0,0-6.5,0-6.5,0ZM50.4,69.1h1.3c2.8,0,3.9-1.3,3.9-4.4s-1.4-4.2-4.1-4.2h-1.1s0,8.6,0,8.6Z" fill="#fff"/>
  <image id="path8990" width="24" height="39" transform="translate(21 13.9)" xlink:href="aldi-1.png"/>
  <image id="path9029" width="24" height="39" transform="translate(30 13.9)" xlink:href="aldi-2.png"/>
  <image id="path9068" width="22" height="39" transform="translate(14 13.9)" xlink:href="aldi-3.png"/>
  <image id="path9089" width="14" height="8" transform="translate(48 24.9)" xlink:href="aldi-4.png"/>
  <image id="path9110" width="21" height="9" transform="translate(45 32.9)" xlink:href="aldi-5.png"/>
  <image id="path9137" width="27" height="8" transform="translate(42 41.9)" xlink:href="aldi-6.png"/>
</svg>