<?xml version="1.0" encoding="UTF-8"?>
<svg id="svg2" xmlns="http://www.w3.org/2000/svg" version="1.1" xmlns:inkscape="http://www.inkscape.org/namespaces/inkscape" xmlns:sodipodi="http://sodipodi.sourceforge.net/DTD/sodipodi-0.dtd" xmlns:svg="http://www.w3.org/2000/svg" xmlns:xlink="http://www.w3.org/1999/xlink" viewBox="0 0 7051.4 1080">
  <!-- Generator: Adobe Illustrator 29.7.0, SVG Export Plug-In . SVG Version: 2.1.1 Build 138)  -->
  <defs>
    <style>
      .st0 {
        fill: none;
      }

      .st1 {
        clip-path: url(#clippath);
      }

      .st2 {
        fill: #1428a0;
      }
    </style>
    <clipPath id="clippath">
      <rect class="st0" x="1606.1" y="29.9" width="3839.8" height="1020"/>
    </clipPath>
  </defs>
  <sodipodi:namedview id="namedview11" bordercolor="#666666" borderopacity="1.0" fit-margin-bottom="0" fit-margin-left="0" fit-margin-right="0" fit-margin-top="0" inkscape:current-layer="svg2" inkscape:cx="2849.7664" inkscape:cy="1429.0617" inkscape:pagecheckerboard="0" inkscape:pageopacity="0.0" inkscape:pageshadow="2" inkscape:window-height="1017" inkscape:window-maximized="1" inkscape:window-width="1920" inkscape:window-x="1912" inkscape:window-y="-8" inkscape:zoom="0.059829465" pagecolor="#ffffff" showgrid="false"/>
  <g id="g8">
    <g id="g10">
      <g class="st1">
        <g id="g12">
          <g id="g18">
            <path id="path20" class="st2" d="M5022.2,509v69.4h48.8v68.9c.2,6.2-.2,12.8-1.2,18.1-1.9,12.8-14.1,34.7-48.8,34.7s-46.4-21.9-48.5-34.7c-.9-5.3-1.2-11.9-1.2-18.1v-217.5c0-7.7.5-16.1,2.2-22.5,2.4-11.6,12.6-34.5,47.3-34.5s45.5,24.1,47.6,34.5c1.4,6.9,1.4,18.4,1.4,18.4v26.4h119.9v-15.6s.5-16.3-.9-31.5c-9-89.3-82.6-117.5-166.9-117.5s-156.6,28.5-167.1,117.5c-.9,8.1-2.4,22.8-2.4,31.5v200.1c0,8.7.3,15.5,1.9,31.4,7.8,86.8,83.1,117.6,167.3,117.6s159.4-30.8,167.4-117.6c1.4-15.9,1.6-22.7,1.7-31.4v-127.5h-168.4ZM4195.7,300.2h-120.4v352.1c.2,6.1,0,13-1.1,18.1-2.5,11.8-12.5,34.6-45.7,34.6s-43.1-22.7-45.4-34.6c-1.2-5.1-1.4-11.9-1.2-18.1v-352.1h-120.3v341.2c-.2,8.8.5,26.8,1.1,31.5,8.3,88.9,78.4,117.8,165.9,117.8s157.7-28.9,166.2-117.8c.7-4.7,1.5-22.7,1-31.5v-341.2ZM3089.6,300.2l-60,372.1-60-372.1h-194.2l-10.3,476h119l3.2-440.6,81.9,440.6h120.7l81.9-440.6,3.2,440.6h119.3l-10.6-476h-194ZM2370.6,300.2l-88.2,476h128.6l66.4-440.6,64.8,440.6h127.7l-87.8-476h-211.6ZM4616.4,683.4l-112.1-383.2h-176.6v471h116.8l-6.8-395.5,120.4,395.5h169.4v-471h-117.6l6.5,383.2ZM3535.6,424c-2.1-9.4-1.5-19.4-.4-24.6,3.4-15.2,13.6-31.9,43.1-31.9s43.6,17.1,43.6,42.9v29.1h117.3v-33.2c0-102.6-91.9-118.7-158.5-118.7s-152.3,27.6-164.8,104.8c-3.3,21-4.1,39.6,1.1,63.4,20.4,96.2,187.9,124.1,212.2,185,4.3,11.5,3.1,26.2.9,34.9-3.6,15.8-14.3,31.8-45.9,31.8s-47.4-17-47.4-42.7v-45.7h-126.3v36.3c0,105.2,82.4,137,171.2,137s155.2-29.1,166.5-107.8c5.4-40.7,1.3-67.2-.8-77.2-19.7-98.7-198.2-128.4-211.7-183.5M1987.6,422.9c-2.3-9.6-1.8-19.7-.5-25,3.3-15.2,13.6-32.1,43.6-32.1s44.2,17.3,44.2,43.2v29.5h118.7v-33.4c0-103.5-93.4-120-160.7-120s-153.6,28.1-166.3,105.8c-3.5,21.3-4.1,40.1.9,64.2,20.6,97.3,189.8,125.5,214.4,187,4.6,11.4,3.2,26.1.9,35.1-3.9,16-14.6,32.2-46.5,32.2s-47.5-17.3-47.5-43.3l-.2-45.8h-127.7v36.4c0,106.4,83.6,138.4,173,138.4s156.6-29.3,168.1-109c5.7-41.1,1.4-67.8-.5-77.9-20.1-99.9-200.6-129.5-214.2-185.2"/>
          </g>
        </g>
      </g>
    </g>
  </g>
</svg>