<svg viewBox="0 0 560 280" xmlns:xlink="http://www.w3.org/1999/xlink" version="1.1" xmlns="http://www.w3.org/2000/svg" id="Ebene_1">
  
  <defs>
    <style>
      .st0 {
        fill: url(#Unbenannter_Verlauf_2);
      }
    </style>
    <radialGradient gradientUnits="userSpaceOnUse" gradientTransform="translate(0 281.3) scale(1 -1)" r="68.5" fy="205.8" fx="280" cy="205.8" cx="280" data-name="Unbenannter Verlauf 2" id="Unbenannter_Verlauf_2">
      <stop stop-color="#6ec7f1" offset=".4"></stop>
      <stop stop-color="#00a8a7" offset=".9"></stop>
    </radialGradient>
  </defs>
  <g id="LOGO_x5F_ORIGINAL">
    <g id="ORIGINAL_x5F_LOGO_x5F_A1">
      <g>
        <path d="M263.2,246.3v-20h10.2v1.9c.4,2.7,1.8,5,4.4,6.8s5.7,2.6,9.2,2.6,6.6-.6,8.9-1.9c2.2-1.3,3.3-3.1,3.3-5.4s-.9-3.8-2.7-4.9-5.5-2-10.9-2.9c-8-1.4-13.8-3.5-17.2-6.6s-5.1-7-5.1-11.8,1.9-8.9,5.6-12.2c3.7-3.3,8.7-4.9,14.8-4.9s10.2,1.1,14.2,3.4v-2.5h10.2v19.3h-10.2v-3.6c-3.1-4.8-7.6-7.2-13.5-7.2s-5.5.6-7.4,2c-2,1.3-2.9,3-2.9,5.2s.9,3.7,2.7,4.5c1.8.8,5.6,1.7,11.5,2.6,5.7.9,10,1.9,12.8,3.1,2.9,1.2,5.3,3.2,7.2,5.9s2.9,6,2.9,9.6c0,5.4-2.1,9.7-6.2,12.9s-9.5,4.8-16.2,4.8-11.3-1.4-15.2-4.2v3.3h-10.2"></path>
        <polyline points="325.7 236.1 325.7 172.7 315.3 172.7 315.3 162.5 337.1 162.5 337.1 236.1 346 236.1 346 246.3 315.3 246.3 315.3 236.1 325.7 236.1"></polyline>
        <path d="M413.2,220h-49.1c.7,5.4,2.9,9.8,6.4,13.1,3.5,3.3,8.1,5,13.6,5,8,0,14.3-3.2,19-9.6l10.1,4.5c-3.3,5.1-7.6,8.9-12.8,11.4-5.3,2.5-10.8,3.7-16.5,3.7-8.9,0-16.5-2.8-22.9-8.4-6.3-5.6-9.5-13.1-9.5-22.5s3.1-16.3,9.2-22.1c6.2-5.8,13.2-8.7,21.2-8.7s14.9,2.8,21.3,8.5c6.4,5.7,9.7,14.1,9.9,25.2M401.4,211.7c-.8-4.1-2.9-7.8-6.4-11.1-3.5-3.3-7.7-5-12.7-5s-8.5,1.5-11.8,4.5c-3.2,3-5.2,6.9-6,11.6h36.8Z"></path>
        <path d="M482.1,220h-49.1c.7,5.4,2.9,9.8,6.4,13.1,3.5,3.3,8.1,5,13.6,5,8,0,14.3-3.2,19-9.6l10.1,4.5c-3.3,5.1-7.6,8.9-12.8,11.4-5.3,2.5-10.8,3.7-16.5,3.7-8.9,0-16.5-2.8-22.9-8.4-6.3-5.6-9.5-13.1-9.5-22.5s3.1-16.3,9.2-22.1c6.2-5.8,13.2-8.7,21.2-8.7s14.9,2.8,21.3,8.5c6.4,5.7,9.7,14.1,9.9,25.2M470.3,211.7c-.8-4.1-2.9-7.8-6.4-11.1s-7.7-5-12.7-5-8.5,1.5-11.8,4.5c-3.2,3-5.2,6.9-6,11.6h36.8Z"></path>
        <path d="M493.9,262.3v-64.1h-9.8v-10.2h21.3v9.2c5.7-6.7,12.6-10.1,20.7-10.1s15,2.8,20.3,8.4c5.4,5.6,8,12.9,8,21.9s-2.9,16.9-8.7,22.4c-5.8,5.5-12.5,8.2-19.9,8.2s-14.5-3-20.5-8.9v23.2h11.3v10.2h-33.5v-10.2h10.7M505.2,218c0,3.2.7,6.3,2,9.2s3.4,5.4,6.3,7.4c2.9,2,6.3,3,10.2,3s10-1.8,13.5-5.5,5.3-8.7,5.3-15.1-1.9-11.1-5.6-14.6c-3.7-3.5-8-5.2-12.7-5.2s-9.5,1.9-13.3,5.7c-3.8,3.8-5.8,8.8-5.8,15.1Z"></path>
        <path d="M31.8,215.2h-.4c-1.7-.6-3.2-1-4.7-1.4-3.9-1-7-1.9-9.9-3-4.2-1.7-6.1-4.7-6.1-9.7,0-1.2.5-11.7,16.7-11.7h.1c5.6,0,10,1.3,13.1,3.7,3.3,2.6,5,6.7,5,12v.3h2.9s0-.3,0-.3c0-6.2-1.9-11-5.6-14.1-3.5-2.9-8.7-4.5-15.2-4.5h-.1c-13.5,0-19.5,7.3-19.5,14.6,0,6.2,2.2,10,7,12.1,3.1,1.4,7.1,2.5,12.8,4,.8.2,1.5.4,2.2.6,8.8,2.2,17.1,4.2,17.1,13.3,0,4.8-3.8,13-18,13h0c-13.4,0-20.5-6.4-20.4-18.4v-.3h-2.9s0,.3,0,.3c0,7.1,2,12.5,6,16.1,3.9,3.4,9.7,5.2,17.3,5.2h.1c9.6,0,20.8-4.2,20.9-16.1,0-10.9-9.6-13.4-18-15.6Z"></path>
        <path d="M116,187.2c-8.4,0-15.6,5.1-18.1,12.7-2.1-8.1-8.3-12.8-16.7-12.8s-.3,0-.5,0c-8.1,0-15.4,5.7-18.1,14v-12.8s-2.8,0-2.8,0l-.2,57.7h2.9s.1-32.6.1-32.6c0-11.4,6.4-23.4,18.1-23.4,4.7,0,8.1,1.2,10.6,3.7,3,3.1,4.4,8.1,4.3,15.5v36.9c-.1,0,2.8,0,2.8,0v-36.5c.3-13.4,9.3-19.6,17.7-19.6,10.9,0,15.5,5.5,15.5,18.4v37.8c-.1,0,2.8,0,2.8,0v-37.8c.2-6.8-1.1-11.8-3.8-15.2-3-4-7.9-6-14.5-6Z"></path>
        <path d="M193.8,243.2c-.8,0-1.8.2-2.7.2-1.6,0-2.6-.3-3.3-1-.6-.6-.8-1.4-.8-2.5v-36.3c-.1-10.9-6.8-16.6-19-16.7h-.1c-13.1,0-21.4,7.2-22,19.2v.4s2.9,0,2.9,0v-.3c.8-10.6,7.6-16.4,19.1-16.4h.1c14.4,0,16.3,7.8,16.2,15.5,0,7.7-5.5,8-18.7,8.6-1.1,0-2.2.1-3.3.2-9.9.6-19.9,3.2-20,17.3,0,9.9,7.2,15.8,19.4,15.8h.1c11.4,0,19.7-6.5,22.4-13.2v6.1c0,1.9.5,3.3,1.5,4.3s3,1.7,5.8,1.7,1.8,0,2.5-.1h.3s0-2.5,0-2.5v-.4s-.4,0-.4,0ZM184.2,212.9v9.9c0,10.8-7.9,21.6-22.7,21.6h-.1c-3.8,0-16.3-1-16.2-12.9,0-12.2,8.9-13.9,17.1-14.5,1.7-.1,3.4-.2,5.1-.3,7.2-.3,14.1-.6,16.9-3.9Z"></path>
        <path d="M223.3,187.2c-10.6,0-18.2,5.1-21.1,14.1v-12.8s-2.9,0-2.9,0l-.2,57.7h2.9s.1-32.6.1-32.6c0-12.1,7-24.2,22.4-23.4h.4s0-2.9,0-2.9h-.3c-.4,0-.8,0-1.3,0Z"></path>
        <path d="M254.4,190.1v-2.9s-12.8,0-12.8,0v-16.6c0,0-2.8,0-2.8,0v16.6h-10.6v2.9s10.5,0,10.5,0v45.2c-.2,3.9.8,6.8,2.6,8.6,1.6,1.6,3.9,2.4,6.8,2.4h.3c2.4,0,3.4-.1,4.2-.2.3,0,.6,0,.9-.1h.3s0-3,0-3h-.4c-.6.3-2.3.4-4.6.4h-.2c-1.7,0-3.5-.1-4.9-1.2-1.6-1.3-2.4-3.7-2.4-7.4v-44.7h13Z"></path>
        <path d="M548.2,267.2c0,.9-.2,1.7-.5,2.4s-.7,1.4-1.3,1.9c-.5.5-1.2.9-1.8,1.2-.7.3-1.4.4-2.2.4s-1.6-.1-2.3-.5c-.7-.3-1.3-.7-1.8-1.2s-.9-1.1-1.2-1.9c-.3-.7-.4-1.5-.4-2.4s.2-1.7.5-2.4.7-1.4,1.3-1.9c.5-.5,1.2-.9,1.9-1.2.7-.3,1.5-.4,2.2-.4s1.5.1,2.2.4c.7.3,1.3.7,1.8,1.2.5.5,1,1.1,1.3,1.9.3.7.5,1.5.5,2.4ZM547,267.2c0-.7-.1-1.4-.3-2s-.5-1.1-1-1.5c-.4-.4-.9-.8-1.4-1-.5-.2-1.1-.4-1.8-.4s-1.2.1-1.8.4-1,.6-1.5,1c-.4.4-.7,1-1,1.5-.2.6-.3,1.3-.3,2s.1,1.3.3,1.9c.2.6.5,1.1.9,1.5.4.4.9.8,1.4,1,.6.3,1.2.4,1.9.4s1.2-.1,1.8-.4c.5-.2,1-.6,1.4-1s.7-.9,1-1.5c.2-.6.3-1.2.3-2ZM541.3,270.6h-1.1v-6.5h2.5c.8,0,1.4.1,1.8.4s.6.8.6,1.4-.2,1-.5,1.3c-.3.3-.7.4-1.2.5l1.8,2.9h-1.2l-1.7-2.8h-1v2.8h0ZM542.5,266.9c.2,0,.4,0,.6,0,.2,0,.3,0,.5-.1.1,0,.2-.2.3-.3s.1-.3.1-.6,0-.4-.1-.5c0-.1-.2-.2-.3-.3s-.3-.1-.5-.1c-.2,0-.3,0-.5,0h-1.3v1.9h1.2Z"></path>
      </g>
      <path d="M233.2,44.1c-10.9,0-18.5-5.8-18.5-17.3,0-9.8,9-19,19.9-18.8,10.7.3,16.1,6.7,16.3,18.7.2,8.6,8,27.9,29.5,27.7,21.7-.1,28.5-17.5,28.8-27.2.2-6.5,1-10.7,4.5-13.8,5.3-4.7,9.8-5.8,14.5-5,8.3,1.2,16.6,8.5,17.2,18.6.6,10.7-7.4,16.7-15.1,17.3-3.8.3-13.8-.8-21.9,7.2-6.8,6.8-9.3,11.2-9.8,19.8-.7,10.4,6.4,25.5,19.2,30.3,7.5,2.9,12.3,1.9,18.3,3.9,7.9,2.6,13.5,8.8,13.6,18.5,0,9.7-5.4,18.8-18.6,18.8s-19.6-11.1-19.9-20.6c-.3-10.7-8.3-29.2-31.1-30.1-10-.4-17.6,3.5-24.2,11.8-5.3,6.6-6.1,9.4-6.8,18.3-.9,12-8.4,20.4-19.3,20.5-11,.2-19.6-8.5-19.3-19.3.4-10.8,8.6-19.7,20.9-19.3,10.1.4,30.1-9.8,29.8-30.9-.4-21.6-17.1-29.2-28-29.2Z" class="st0"></path>
    </g>
  </g>
</svg>