<?xml version="1.0" encoding="UTF-8"?>
<svg id="Layer_1" xmlns="http://www.w3.org/2000/svg" version="1.1" viewBox="0 0 452 412">
  <!-- Generator: Adobe Illustrator 29.7.0, SVG Export Plug-In . SVG Version: 2.1.1 Build 138)  -->
  <defs>
    <style>
      .st0 {
        fill: #8ebbe5;
      }

      .st1 {
        fill: none;
      }

      .st2 {
        fill: #007bc4;
      }

      .st3 {
        fill: #ffed00;
      }
    </style>
  </defs>
  <path class="st1" d="M438.1,150.8c0,4.1-1,7.7-2.6,10.8,1.6-3,2.5-6.7,2.6-10.8v-.6c0-.7,0-1.4,0-2.1,0,.7,0,1.4,0,2.1v.6Z"/>
  <path class="st1" d="M436.8,142c.2.5.4,1.1.5,1.7-.2-.6-.3-1.1-.5-1.7Z"/>
  <path class="st1" d="M437.4,143.9c.1.5.2,1.1.3,1.6,0-.5-.2-1.1-.3-1.6Z"/>
  <polygon class="st1" points="435.5 183.3 435.5 183.3 435.4 188.9 435.5 183.3"/>
  <path class="st1" d="M437.8,146.1c0,.5.1,1,.2,1.5,0-.5-.1-1-.2-1.5Z"/>
  <path class="st1" d="M13,175.8h0s23.6,0,23.6,0c0,0,0,0,0,0,0,0,0,0,0,0H13Z"/>
  <polygon class="st1" points="420.1 274.4 433.7 274.4 433.7 274.4 420.1 274.4 420.1 274.4"/>
  <polygon class="st1" points="41 276.8 41 276.8 48.4 276.8 48.4 276.8 41 276.8"/>
  <path class="st1" d="M436.1,140.4c.2.3.3.7.4,1-.1-.3-.3-.7-.4-1Z"/>
  <path class="st1" d="M435.2,138.8c.2.3.4.6.5.9-.2-.3-.4-.6-.5-.9Z"/>
  <path class="st1" d="M0,0v412h452V0H0ZM445.8,155.6c-.1,6.9-2.4,12.9-6.8,17.2-1.1,1.1-2.3,2-3.7,2.9h1.7c.4,0,.7.1,1,.4l4.9,4.8c.3.3.4.6.4,1l-2,98.7c0,.8-.6,1.4-1.4,1.4h-22.8c-29.9,71.8-100.7,122.2-183.3,122.3h0c-81.7,0-151.9-49.4-182.3-119.9h-12.1c-.4,0-.7-.1-.9-.4-1.6-1.6-3.3-3.2-4.9-4.8,0,0,0,0,0,0-.3-.3-.5-.6-.5-1.1l1.9-94.7H11.5c-.4,0-.7-.2-1-.4-1.6-1.6-3.3-3.2-4.9-4.8,0,0,0,0,.1,0-.3-.3-.5-.6-.5-1.1l1-49.1c0-.4.2-.7.4-1,.3-.3.6-.4,1-.4h44.1C82.2,56.5,152.2,7.3,233.8,7.2h0c82.5,0,153.5,46.9,183.4,119.9,7.4.3,13.2,2.5,17.2,6.3.2.2.3.3.5.5,0,0-.2-.2-.3-.3l4.9,4.8c4.2,4.1,6.3,9.9,6.3,16.6v.6Z"/>
  <path class="st3" d="M233.8,20.1c75.6,0,140.9,43.3,169.8,108.9,2.1-.8,4.3-1.3,6.8-1.6-9.6-22.6-23.3-42.8-40.8-59.8-35.6-34.7-83.8-53.9-135.7-53.9h0s0,0,0,0c-25.9,0-51.1,5.1-74.8,15.1-22.9,9.7-43.4,23.5-61,41.2-16.5,16.5-29.7,35.6-39.3,56.8h7.1C95.4,63.8,159.5,20.1,233.8,20.1Z"/>
  <polygon class="st3" points="62.3 276.8 55.3 276.8 55.3 276.8 62.3 276.8 62.3 276.8"/>
  <path class="st3" d="M233.9,391.4c-74.4,0-138.6-43.8-168.3-107h-7.1c9.6,21.3,22.8,40.6,39.5,57.2,17.6,17.6,38.2,31.5,61,41.2,23.7,10,48.8,15.1,74.7,15.1h0c25.9,0,51.1-5.1,74.8-15.1,22.9-9.7,43.4-23.5,61-41.2,17.2-17.3,30.8-37.3,40.5-59.5h-7.1c-29.1,64.5-93.9,109.4-169.2,109.4Z"/>
  <polygon class="st3" points="406.3 274.4 413.2 274.4 413.2 274.4 406.3 274.4 406.3 274.4"/>
  <polygon points="416.6 274.4 416.6 274.4 420.1 274.4 420.1 274.4 416.6 274.4"/>
  <path d="M233.9,401.1h0c-79.7,0-148.4-48-178.8-116.7h-3.6c30.5,70.5,100.6,119.9,182.3,119.9h0c82.6,0,153.4-50.5,183.3-122.3h-3.5c-29.8,69.9-99.1,119-179.7,119.1Z"/>
  <path d="M233.8,10.5c52.9,0,101.9,19.5,138,54.8,18.1,17.7,32.2,38.6,41.9,61.9.3,0,.7,0,1,0,.3,0,.5,0,.8,0,.6,0,1.2,0,1.7,0C387.3,54.2,316.3,7.2,233.8,7.2h0c-81.6,0-151.6,49.2-182.1,119.6h3.6C85.6,58.3,154.2,10.5,233.8,10.5Z"/>
  <polygon points="48.4 276.8 48.4 276.8 51.9 276.8 51.9 276.8 48.4 276.8"/>
  <path d="M369.7,341.5c-17.6,17.6-38.2,31.5-61,41.2-23.7,10-48.8,15.1-74.8,15.1h0c-25.9,0-51.1-5.1-74.7-15.1-22.9-9.7-43.4-23.5-61-41.2-16.7-16.7-29.9-35.9-39.5-57.2h-3.5c30.3,68.6,99,116.7,178.8,116.7h0s0,0,0,0c80.6,0,150-49.2,179.7-119.1h-3.5c-9.6,22.3-23.2,42.3-40.5,59.5Z"/>
  <path d="M98,70c17.6-17.6,38.2-31.5,61-41.2,23.7-10,48.8-15.1,74.8-15.1h0c51.9,0,100.1,19.1,135.7,53.9,17.5,17.1,31.2,37.2,40.8,59.8,1.1-.1,2.2-.2,3.3-.3-9.7-23.2-23.8-44.2-41.9-61.9-36.2-35.3-85.2-54.8-138-54.8-79.6,0-148.2,47.9-178.5,116.3h3.5c9.6-21.2,22.8-40.3,39.3-56.8Z"/>
  <polygon points="55.3 276.8 51.9 276.8 51.9 276.8 55.3 276.8 55.3 276.8"/>
  <polygon points="413.2 274.4 413.2 274.4 416.6 274.4 416.6 274.4 413.2 274.4"/>
  <path class="st0" d="M295.3,37.5c47.3,17.3,82.9,52.4,102,95,1.8-1.4,4-2.6,6.3-3.5-28.9-65.6-94.2-108.9-169.8-108.9-74.3,0-138.3,43.7-168,106.7h7.2C112.8,45.5,208.4,5.7,295.3,37.5Z"/>
  <polygon class="st0" points="399.3 274.4 406.3 274.4 406.3 274.4 399.3 274.4 399.3 274.4"/>
  <polygon class="st0" points="69.4 276.8 62.3 276.8 62.3 276.8 69.4 276.8 69.4 276.8"/>
  <path class="st0" d="M172.4,374c-45.3-16.6-79.9-49.5-99.5-89.6h-7.2c29.6,63.2,93.8,107,168.3,107,75.3,0,140.1-44.9,169.2-109.4h-7.2c-39,83.1-135.7,124.1-223.6,92Z"/>
  <path class="st0" d="M415.7,172.1c-.2,0-.3,0-.5,0,0,0,0,0,0,0,0,0,0,0,0,0,.2,0,.3,0,.5,0Z"/>
  <path class="st0" d="M412.1,172c.8,0,1.6,0,2.4,0-.8,0-1.6,0-2.4,0Z"/>
  <path class="st0" d="M411.2,171.9c-.5,0-1-.1-1.5-.2,0,0,0,0,0,0,.5,0,1,.1,1.5.2Z"/>
  <path class="st2" d="M376.6,175.8s0,0,0,0c0,0,0,0,0,0Z"/>
  <path class="st2" d="M374,169.8c0,.1.1.2.2.3,0-.1-.1-.2-.2-.3Z"/>
  <path class="st2" d="M375.4,172.7s0,0,0,.1c0,0,0,0,0-.1Z"/>
  <path class="st2" d="M363.3,154.2h0s0,0,0,0c0,0,0,0,0,0Z"/>
  <path class="st2" d="M369.2,161.6s0,0,0,.1c0,0,0,0,0-.1Z"/>
  <path class="st2" d="M365.4,156.5s0,0,0,0c0,0,0,0,0,0Z"/>
  <polygon class="st2" points="396.5 274.4 399.3 274.4 399.3 274.4 396.5 274.4 396.5 274.4"/>
  <path class="st2" d="M371,164.3s0,0,0,0c0,0,0,0,0,0Z"/>
  <path class="st2" d="M377.6,178.6c0,.2.1.3.2.5,0-.2-.1-.3-.2-.5Z"/>
  <path class="st2" d="M381.1,198c0,.3,0,.5,0,.8,0-.3,0-.5,0-.8Z"/>
  <path class="st2" d="M279.3,276.8c3,0,5.9,0,8.8,0,2.7,0,5.4-.1,8-.2-2.6.1-5.2.2-7.9.2-2.8,0-5.8,0-8.8,0Z"/>
  <path class="st2" d="M380.9,194.8c0,.2,0,.5,0,.7,0-.2,0-.5,0-.7Z"/>
  <path class="st2" d="M317.9,178.1c.1,0,.2.2.3.2-.1,0-.2-.2-.3-.2Z"/>
  <path class="st2" d="M380.6,191.6s0,0,0,.1c0,0,0,0,0-.1Z"/>
  <path class="st2" d="M379.4,185c0,.2,0,.3,0,.5,0-.2,0-.3,0-.5Z"/>
  <path class="st2" d="M378.6,181.8c0,0,0,.1,0,.2,0,0,0-.1,0-.2Z"/>
  <path class="st2" d="M409.7,171.8s0,0,0,0c0,0,0,0,0,0,0,0,0,0,0,0Z"/>
  <path class="st2" d="M380,188c0,.2,0,.5.1.7,0-.2,0-.5-.1-.7Z"/>
  <polygon class="st2" points="133.8 276.8 178.8 276.8 133.8 276.8 133.8 276.8"/>
  <polygon class="st2" points="87.1 274.8 87 276.8 69.4 276.8 69.4 276.8 87 276.8 87.1 274.8"/>
  <path class="st2" d="M292.7,173.3c-.3.2-.5.5-.6.9,0-.4.3-.7.6-.9Z"/>
  <path class="st2" d="M321.3,180.7c.2.1.3.3.4.4-.1-.1-.3-.3-.4-.4Z"/>
  <polygon class="st2" points="244.4 276.8 260.5 276.8 244.4 276.8 244.4 276.8"/>
  <path class="st2" d="M181.1,220.4s0,0,0,0c0,0,0,0,0,0Z"/>
  <polygon class="st2" points="223.6 189.6 223.6 189.6 223.3 200.2 223.6 189.6"/>
  <polygon class="st2" points="90.4 175.9 90.4 175.9 119 175.9 119.8 134.4 119.8 134.4 119 175.9 90.4 175.9"/>
  <path class="st2" d="M402,169.5c-.3-.2-.6-.3-.9-.5.3.2.6.3.9.5Z"/>
  <path class="st2" d="M404,170.4c-.4-.2-.8-.3-1.2-.5.4.2.8.3,1.2.5Z"/>
  <path class="st2" d="M400.1,168.4c0,0,.2.1.3.2,0,0-.2-.1-.3-.2,0,0,0,0,0,0Z"/>
  <path class="st2" d="M406.6,171.2c-.6-.1-1.1-.3-1.7-.5.5.2,1.1.3,1.7.5Z"/>
  <path class="st2" d="M181.3,220.4h41.6s0,0,0,0h-41.6s0,0,0,0Z"/>
  <path class="st2" d="M181,168.9c0-.8.6-1.4,1.4-1.4h16.4s-16.4,0-16.4,0c-.8,0-1.4.6-1.4,1.4l-.3,14.5s0,0,0,0c0,0,0,0,0,0l.3-14.5Z"/>
  <path class="st2" d="M319.7,179.3c.2.1.4.3.6.5-.2-.2-.4-.3-.6-.5Z"/>
  <path class="st2" d="M179.6,237.5h0s0,0,0,0l.3-15.7s0,0,0-.1c0,0,0,0,0,.1l-.3,15.7Z"/>
  <polygon class="st2" points="290.9 232.5 291.7 191.2 290.9 232.5 290.9 232.5 290.9 232.5"/>
  <path class="st2" d="M180,221.5s0,0,0,0c0,0,0,0,0,0Z"/>
  <path class="st2" d="M408.8,171.6c-.5,0-.9-.2-1.4-.3.4.1.9.2,1.4.3Z"/>
  <path class="st2" d="M330.2,271.5c-3.2,1-6.4,1.8-9.8,2.5,3.4-.7,6.6-1.5,9.8-2.5Z"/>
  <rect class="st2" x="211.3" y="260.3" width="33.1" height="0" transform="translate(-36.9 482.9) rotate(-88.9)"/>
  <path d="M41,276.8h0s-5,0-5,0l.9-46.1c-1-8.2-1.6-16.5-1.6-24.9,0-9.9.7-19.6,2.1-29.1,0,0-.2-.2-.3-.3,0,0-.2-.2-.3-.3,0,0-.2-.2-.3-.3,0,0,0,0,0,0H13s-5,0-5,0l.9-46.3h41.6c.4-.9.8-1.9,1.2-2.8H7.6c-.4,0-.7.1-1,.4-.3.3-.4.6-.4,1l-1,49.1c0,.4.2.8.5,1.1,0,0,0,0-.1,0,1.6,1.6,3.3,3.2,4.9,4.8.2.2.6.4,1,.4h23.6s-1.9,94.7-1.9,94.7c0,.4.2.8.5,1.1,0,0,0,0,0,0,1.6,1.6,3.3,3.2,4.9,4.8.2.2.6.4.9.4h12.1c-1.1-2.5-2.1-5-3.1-7.6h-7.4ZM5.8,178.4s0,0,.1,0c0,0,0,0-.1,0ZM6,178.5c0,0,.1,0,.2,0,0,0-.1,0-.2,0ZM6.3,178.6c0,0,.2,0,.3,0,0,0-.2,0-.3,0ZM33.7,279.3s0,0,.1,0c0,0,0,0-.1,0ZM34,279.4s0,0,.1,0c0,0-.1,0-.1,0ZM34.2,279.5c0,0,.2,0,.3,0,0,0-.2,0-.3,0Z"/>
  <path d="M62.3,276.8h-7c.5,1.3,1,2.5,1.5,3.8.5,1.3,1.1,2.5,1.7,3.8h7.1c-1.2-2.5-2.3-5-3.3-7.6Z"/>
  <path d="M65.8,126.8h-7.1c-.4.9-.8,1.9-1.2,2.8h7c.4-.9.9-1.9,1.3-2.8Z"/>
  <path d="M51.9,276.8h-3.5c1,2.6,2,5.1,3.1,7.6h3.6c-1.1-2.5-2.2-5-3.2-7.6Z"/>
  <path d="M54,129.6c.4-.9.8-1.9,1.2-2.8h-3.6c-.4.9-.8,1.9-1.2,2.8h3.5Z"/>
  <path d="M37.9,177.2c-.2-.2-.3-.3-.5-.5,0,0,0,0,0,0-1.4,9.5-2.1,19.2-2.1,29.1,0,8.4.5,16.7,1.6,24.9l1.1-53.5s0,0,0,0Z"/>
  <path d="M58.7,126.8h-3.5c-.4.9-.8,1.9-1.2,2.8h3.5c.4-.9.8-1.9,1.2-2.8Z"/>
  <path d="M56.8,280.6c-.5-1.3-1-2.5-1.5-3.8h-3.4c1,2.6,2.1,5.1,3.2,7.6h3.5c-.6-1.3-1.1-2.5-1.7-3.8Z"/>
  <path d="M73,126.8h-7.2c-.4.9-.9,1.8-1.3,2.8h7.2c.4-.9.9-1.9,1.3-2.8Z"/>
  <path d="M69.4,276.8h-7.1c1.1,2.6,2.2,5.1,3.3,7.6h7.2c-1.2-2.5-2.4-5-3.5-7.6Z"/>
  <path d="M94.7,283l2-99.5h28.6c.4,0,.7-.1,1-.4.3-.3.4-.6.4-1l1-49.1c0-.4-.1-.7-.4-1-.7-.7-1.5-1.4-2.2-2.2-.9-.9-1.8-1.8-2.7-2.6,0,0,0,0,0,0-.2-.2-.6-.4-1-.4h-48.4c-.5.9-.9,1.8-1.3,2.8h48.3s0,4.8,0,4.8h0l-.8,41.5h-28.6c-.8,0-1.4.6-1.4,1.4l-2,97.5v2s-17.7,0-17.7,0c1.1,2.6,2.3,5.1,3.5,7.6h20.5c.7,0,1.4-.6,1.4-1.4ZM122.7,127.9s0,0,0-.1c0,0,0,0,0,.1ZM122.6,127.7s0,0,0-.1c0,0,0,0,0,.1ZM122.5,127.4s0,0,0,0c0,0,0,0,0,0Z"/>
  <path d="M236.1,175.1c.3,0,.7-.2.9-.4.3-.3.4-.6.4-1l.8-40.7c0-.4-.1-.7-.4-1,0,0,0,0,0,0-1.6-1.6-3.3-3.2-4.9-4.8,0,0,0,0,0,0-.2-.3-.6-.4-1-.4h-101.6c-.8,0-1.4.6-1.4,1.4l-3,150c0,.4.2.8.5,1.1,0,0,0,0-.1-.1.5.5,1,1,1.5,1.4,1.2,1.1,2.3,2.2,3.5,3.4.2.2.6.4,1,.4h101.5c.3,0,.7-.1.9-.4.3-.3.4-.6.4-1l.8-40.7c0-.4-.1-.8-.4-1l-4.9-4.8h0s0,0,0,0c-.2-.2-.6-.4-1-.4h-42.2s.2-8.1.2-8.1h41.6c.3,0,.7-.2.9-.4.3-.3.4-.6.4-1l.8-38.4c0-.4-.2-.7-.4-1l-4.9-4.8s0,0,0,0h0s0,0,0,0c-.2-.2-.6-.4-1-.4h-36.6v-6.9c.1,0,47.6,0,47.6,0ZM126.6,279.4s.1,0,.2,0c0,0-.1,0-.2,0ZM126.8,279.5c0,0,.1,0,.2,0,0,0-.1,0-.2,0ZM127.1,279.6c0,0,.2,0,.3,0,0,0-.2,0-.3,0ZM231,237.2s0,0,0,0c0,0,0,0,0,0ZM230.9,237s0,0,0,0c0,0,0,0,0,0ZM230.8,236.7s0,0,0,0c0,0,0,0,0,0ZM226.4,183.1s0,0,0,0c0,0,0,0,0,0ZM226.4,182.9s0,0,0,0c0,0,0,0,0,0ZM226.2,182.6s0,0,0,0c0,0,0,0,0,0ZM182.1,184.8h41.5s0,4.8,0,4.8h0l-.2,10.5-.4,20.2h0s-41.6,0-41.6,0c0,0-.2,0-.2,0,0,0,0,0,0,0-.6.1-1,.5-1.1,1.1,0,0,0,0,0,0,0,0,0,.1,0,.2,0,0,0,0,0,.1l-.3,15.7h0s1.4,1.4,1.4,1.4h47.2s0,4.8,0,4.8h0l-.7,33.1h0s-48.7,0-48.7,0h-44.9s-5,0-5,0l2.9-147.2h98.8s-.8,37.9-.8,37.9h-30.9s-16.4,0-16.4,0c-.8,0-1.4.6-1.4,1.4l-.3,14.5s0,0,0,0c.4.4.9.9,1.4,1.4Z"/>
  <path d="M290.9,232.5l1.4,1.4c12.1-.2,21.2-2.4,27.4-7.4,3.1-2.5,5.5-5.7,7-9.5,1.6-3.9,2.4-8.4,2.5-13.6,0-.3,0-.7,0-1,0-4.9-.7-9.2-2.1-12.9-.2-.6-.5-1.2-.8-1.8.3.6.5,1.2.8,1.8-.2-.6-.5-1.2-.8-1.8-.1-.3-.3-.5-.4-.8,0,.1.2.3.2.4,0-.1-.1-.3-.2-.4-1.1-2.2-2.6-4.2-4.3-5.9-.1-.1-.3-.3-.4-.4-.3-.3-.7-.6-1.1-.9-.2-.2-.4-.3-.6-.5-.5-.3-.9-.7-1.4-1-.1,0-.2-.2-.3-.2-.6-.4-1.2-.7-1.9-1.1-5.3-2.7-12-4-20.2-4-.8,0-1.5,0-2.3,0-.3,0-.6,0-.8.2-.3.2-.5.5-.6.9,0,0,0,.1,0,.2l-.3,16.8-.8,41.3s0,0,0,0ZM299.7,180.6h.9c9.3,0,17.8,1.9,21.2,5.2,1.3,1.5,2,3,2.7,4.7,1.3,3.3,1.9,7.3,1.9,12v.9h0c-.1,5-.9,9.1-2.3,12.6-2.1,5.2-5.6,8.8-10.8,11.3-3.9,1.9-8.8,3-14.6,3.6l1-50.2Z"/>
  <path d="M388.9,206.7c0-20.5-7.4-38.8-21.2-52.3-1.6-1.6-3.3-3.2-4.9-4.8,0,0,0,0,.1.1-5.3-5.2-11.5-9.7-18.6-13.3-14.1-7.1-33.7-9.6-59.8-9.6h-43.6c-.8,0-1.4.6-1.4,1.4l-3,150c0,.4.2.8.5,1.1,0,0,0,0-.1,0,1.6,1.6,3.3,3.2,4.9,4.8.2.2.6.4.9.4h39.6c3.6,0,7.2,0,10.6,0,25-.4,45.3-3,63-15,20.6-13.9,32.4-36,32.9-61.1,0-.5,0-1,0-1.5ZM345.4,140.2c-.8-.4-1.6-.9-2.4-1.3.8.4,1.6.8,2.4,1.3ZM237.1,279.4s0,0,.1,0c0,0,0,0-.1,0ZM237.4,279.5c0,0,.1,0,.2,0,0,0-.1,0-.2,0ZM237.6,279.6c0,0,.2,0,.3,0,0,0-.2,0-.3,0ZM381.2,203.4c-.5,24.3-11.8,45.4-31.6,58.8-6.1,4.2-12.6,7.1-19.5,9.3-3.2,1-6.4,1.8-9.8,2.5-7.5,1.5-15.6,2.2-24.3,2.6-2.6.1-5.2.2-8,.2-2.8,0-5.8,0-8.8,0-.6,0-1.2,0-1.8,0h-17s-16.1,0-16.1,0h0s-5,0-5,0l2.9-147.2h42.2c25.9,0,45.2,2.6,58.5,9.3,1.1.6,2.2,1.2,3.3,1.8,0,0,0,0,0,0,0,0,0,0,0,0,.5.3,1,.5,1.4.8,0,0,0,0,0,0,0,0,0,0,0,0,.3.2.7.4,1,.6,0,0,0,0,0,0,0,0,0,0,0,0,.4.2.8.5,1.1.7,0,0,.1,0,.2,0,0,0-.1,0-.2,0,.4.3.9.6,1.3.9,0,0-.1,0-.2-.1,0,0,.1,0,.2.1.3.2.6.4,1,.7,0,0,0,0,0,0,0,0,0,0,0,0,.3.2.7.5,1,.7,0,0,0,0,0,0,0,0,0,0,0,0,.4.3.8.6,1.2.9,0,0,0,0,0,0,0,0,0,0,0,0,.3.3.7.5,1,.8,0,0,0,0,0,0,0,0,0,0,0,0,.3.3.6.5,1,.8,0,0,0,0,.1,0,0,0,0,0-.1,0,.3.3.7.5,1,.8,0,0,0,0,0,0,0,0,0,0,0,0,1,.9,2,1.8,3,2.7,0,0,0,0,0,0,0,0,0,0,0,0,1,1,2,2,3,3.1h0s0,0,0,0c.7.8,1.4,1.5,2.1,2.3,0,0,0,0,0,0,1.4,1.6,2.6,3.3,3.8,5,0,0,0,0,0,.1.6.8,1.1,1.7,1.7,2.5,0,0,0,0,0,0,1.1,1.8,2.1,3.6,3,5.4,0,.1.1.2.2.3.4.9.8,1.8,1.2,2.7,0,0,0,0,0,.1.4,1,.8,1.9,1.2,2.9,0,0,0,0,0,0,.3.9.7,1.8,1,2.7,0,.2.1.3.2.5.3.9.6,1.8.8,2.7,0,0,0,.1,0,.2.3,1,.5,2,.7,3,0,.2,0,.3,0,.5.2.8.4,1.7.5,2.5,0,.2,0,.5.1.7.2,1,.3,1.9.4,2.9,0,0,0,0,0,.1.1,1,.2,2.1.3,3.1,0,.2,0,.5,0,.7,0,.8.1,1.6.2,2.5,0,.3,0,.5,0,.8,0,1,0,2.1,0,3.1,0,.5,0,1,0,1.5Z"/>
  <path d="M434.6,133.6c0,0,.2.2.3.3-.2-.2-.3-.3-.5-.5-4-3.8-9.8-6-17.2-6.3.4.9.8,1.9,1.2,2.8,6.2.5,10.9,2.4,14.1,5.5,1.1,1,1.9,2.1,2.7,3.4.2.3.4.6.5.9.1.2.2.4.3.7.2.3.3.7.4,1,0,.2.2.4.2.6.2.5.4,1.1.5,1.7,0,0,0,.2,0,.3.1.5.2,1.1.3,1.6,0,.2,0,.4,0,.6,0,.5.1,1,.2,1.5,0,.2,0,.4,0,.6,0,.7,0,1.4,0,2.1v.6c0,4.1-1,7.7-2.6,10.8-.9,1.7-2,3.2-3.3,4.5-.9.9-1.9,1.7-3,2.4.6,3.3,1.1,6.7,1.5,10.1h5s0,4.8,0,4.8h0v5.7c-.1,0-1.8,85.5-1.8,85.5h0s-13.5,0-13.5,0c-.9,2.6-1.9,5.1-3,7.6h22.8c.8,0,1.4-.6,1.4-1.4l2-98.7c0-.4-.1-.7-.4-1l-4.9-4.8c-.3-.3-.6-.4-1-.4h-1.7c1.3-.8,2.6-1.8,3.7-2.9,4.4-4.3,6.7-10.3,6.8-17.2v-.6c0-6.7-2.1-12.5-6.3-16.6l-4.9-4.8Z"/>
  <path d="M404.7,131.5c2-.7,4.3-1.2,6.8-1.5-.2-.6-.5-1.2-.7-1.8-.1-.3-.2-.6-.4-.8-2.4.3-4.7.8-6.8,1.6.4.8.7,1.7,1.1,2.5Z"/>
  <path d="M417.6,178.5h6.6c-.3-2.5-.7-5-1.1-7.4-2,.5-4.1.9-6.5,1,.4,2.1.7,4.3,1,6.4Z"/>
  <path d="M403.1,282h7.1c.2-.5.5-1,.7-1.5.8-2,1.7-4,2.4-6.1h-6.9c-1,2.6-2.1,5.1-3.2,7.6Z"/>
  <path d="M414.7,127c-.3,0-.7,0-1,0,.4.9.8,1.8,1.1,2.7.2,0,.4,0,.6,0,1,0,2,0,3,.1-.4-1-.8-1.9-1.2-2.8-.6,0-1.1,0-1.7,0-.3,0-.5,0-.8,0Z"/>
  <path d="M427.4,178.5h3.3c-.4-3.4-.9-6.7-1.5-10.1-.9.6-2,1.1-3,1.6.5,2.8.9,5.6,1.3,8.5Z"/>
  <path d="M416.6,274.4c-1,2.6-2,5.1-3,7.6h3.5c1-2.5,2-5,3-7.6h-3.5Z"/>
  <path d="M410.7,128.2c.3.6.5,1.2.7,1.8,1-.1,2.1-.2,3.2-.2,0,0,0,0,.1,0-.4-.9-.7-1.8-1.1-2.7-1.1,0-2.2.1-3.3.3.1.3.2.6.4.8Z"/>
  <path d="M410.8,280.5c-.2.5-.4,1-.7,1.5h3.5c1.1-2.5,2.1-5,3-7.6h-3.4c-.8,2-1.6,4.1-2.4,6.1Z"/>
  <path d="M424.1,178.5h3.2c-.4-2.8-.8-5.7-1.3-8.5-1,.4-2,.8-3,1.1.4,2.5.8,4.9,1.1,7.4Z"/>
  <path d="M398.4,135.1c1.7-1.5,3.8-2.7,6.3-3.6-.4-.8-.7-1.7-1.1-2.5-2.4.9-4.5,2-6.3,3.5.4.9.8,1.7,1.2,2.6Z"/>
  <path d="M415.3,172.1s0,0,0,0c-.2,0-.5,0-.7,0,0,0,0,0-.1,0-.8,0-1.6,0-2.4,0-.3,0-.6,0-.8,0-.5,0-1-.1-1.5-.2.4,2.2.8,4.4,1.2,6.7h6.7c-.3-2.2-.6-4.3-1-6.4-.3,0-.5,0-.8,0-.2,0-.3,0-.5,0Z"/>
  <path d="M395.9,282h7.2c1.1-2.5,2.2-5,3.2-7.6h-7c-1.1,2.6-2.2,5.1-3.4,7.6Z"/>
  <path d="M409.7,171.8c-.3,0-.6,0-.9-.1-.5,0-.9-.2-1.4-.3-.3,0-.6-.1-.8-.2-.6-.1-1.1-.3-1.7-.5-.3,0-.6-.2-.9-.3-.4-.2-.8-.3-1.2-.5-.3-.1-.5-.3-.8-.4-.3-.2-.6-.3-.9-.5-.3-.2-.5-.3-.8-.5,0,0-.2-.1-.3-.2,0,0,0,0,0,0-.9-.6-1.8-1.3-2.6-2-3.8-3.6-5.8-8.7-5.8-15v-.5c.1-6.4,2.2-11.4,6-15,.2-.2.5-.4.7-.6-.4-.9-.8-1.8-1.2-2.6-.5.4-1,.8-1.5,1.3-4.4,4.2-6.7,10.1-6.9,17v.6c0,6.9,2.2,12.8,6.6,17,0,0-.1-.1-.2-.2.7.7,1.5,1.4,2.2,2.2.9.9,1.8,1.8,2.7,2.6,0,0,.1.1.2.2,1,.9,2,1.7,3.2,2.5h-11.6c-.8,0-1.4.6-1.4,1.4l-2,98.7c0,.4.1.7.4,1l4.9,4.8c.3.3.6.4,1,.4h1c1.2-2.5,2.3-5,3.4-7.6h-2.8s-5,0-5,0l2-95.9h17.5c-.3-2.2-.7-4.5-1.2-6.7,0,0,0,0,0,0Z"/>
  <path class="st3" d="M432.3,205.7c0,24.2-4.3,47.3-12.2,68.7h13.5s1.7-85.5,1.7-85.5v-5.7c.1,0-4.2,0-4.2,0,.8,7.3,1.1,14.8,1.2,22.4Z"/>
  <path class="st3" d="M424.7,183.3h-6.5c.8,7.3,1.3,14.8,1.3,22.4,0,24.3-4.7,47.4-13.1,68.7h6.9c8.4-21.9,12.6-45,12.6-68.7,0-7.6-.4-15.1-1.2-22.4Z"/>
  <path class="st3" d="M416.6,274.4h3.5c7.9-21.4,12.2-44.6,12.2-68.7,0-7.6-.4-15.1-1.2-22.4h-3.3c.8,7.4,1.2,14.9,1.2,22.4,0,24.2-4.4,47.3-12.5,68.7Z"/>
  <path class="st3" d="M425.9,205.7c0,23.7-4.3,46.8-12.6,68.7h3.4c8.1-21.4,12.5-44.5,12.5-68.7,0-7.6-.4-15.1-1.2-22.4h-3.2c.8,7.4,1.2,14.8,1.2,22.4Z"/>
  <path class="st3" d="M402.1,267.2c-.9,2.4-1.8,4.8-2.8,7.2h7c8.5-21.2,13.1-44.4,13.1-68.7s-.4-15.1-1.3-22.4h-6.6c3.5,27.5.7,56.2-9.5,84Z"/>
  <path class="st3" d="M396.5,274.4h2.8c1-2.4,1.9-4.7,2.8-7.2,10.2-27.8,13-56.5,9.5-84h-13.2s-1.9,91.1-1.9,91.1Z"/>
  <path class="st3" d="M435.5,183.3v-4.8c0,0-4.9,0-4.9,0,.2,1.6.4,3.2.5,4.8h4.3Z"/>
  <polygon class="st3" points="433.7 274.4 435.4 188.9 433.7 274.4 433.7 274.4"/>
  <path class="st3" d="M418.2,183.3h6.5c-.2-1.6-.4-3.2-.6-4.8h-6.6c.2,1.6.4,3.2.6,4.8Z"/>
  <path class="st3" d="M427.9,183.3h3.3c-.2-1.6-.3-3.2-.5-4.8h-3.3c.2,1.6.4,3.2.6,4.8Z"/>
  <path class="st3" d="M424.7,183.3h3.2c-.2-1.6-.4-3.2-.6-4.8h-3.2c.2,1.6.4,3.2.6,4.8Z"/>
  <path class="st3" d="M410.9,178.5c.2,1.6.5,3.2.7,4.8h6.6c-.2-1.6-.4-3.2-.6-4.8h-6.7Z"/>
  <path class="st3" d="M391.5,274.4h5s1.9-91.1,1.9-91.1h13.2c-.2-1.6-.4-3.2-.7-4.8h-17.5s-2,95.9-2,95.9Z"/>
  <path class="st3" d="M41.4,254.8l-.4,22h7.4c-2.7-7.1-5.1-14.5-7-22Z"/>
  <path class="st3" d="M48.5,134.4H13.8s-.8,41.5-.8,41.5h23.6s0,0,0,0c.4,0,.7.1.9.4,2.2-14.5,5.9-28.5,11-41.9ZM36.8,175.9s0,0,0,0c0,0,0,0,0,0ZM37.1,176s0,0,0,0c0,0,0,0,0,0ZM37.4,176.2s0,0,0,0c0,0,0,0,0,0Z"/>
  <path class="st3" d="M48.2,205.8c0-25.3,5.1-49.4,14.2-71.4h-7c-6.6,16.5-10.8,33.7-12.7,51.3l-.6,32.3c1.3,20.3,5.7,40,13.2,58.8h7c-9.1-21.9-14.1-45.8-14.1-71Z"/>
  <path class="st3" d="M48.5,134.4c-5.1,13.3-8.9,27.3-11,41.9,0,0,0,0,0,0,0,0,0,0,0,0,.9.9,1.9,1.8,2.8,2.8,2.1-15.5,6.1-30.5,11.7-44.6h-3.5Z"/>
  <path class="st3" d="M41.4,254.8c1.9,7.5,4.2,14.8,7,22h3.5c-4.5-11.5-7.9-23.5-10.2-35.9l-.3,13.9Z"/>
  <path class="st3" d="M42.8,182.1v3.6c1.8-17.6,6-34.8,12.6-51.3h-3.4c-5.6,14.2-9.5,29.1-11.7,44.6.7.7,1.4,1.4,2.1,2,.3.3.4.6.4,1Z"/>
  <path class="st3" d="M41.7,240.8c2.3,12.4,5.7,24.4,10.2,35.9h3.4c-7.5-18.8-11.9-38.5-13.2-58.8l-.5,22.8Z"/>
  <path class="st3" d="M65.5,144.3c1.2-3.4,2.6-6.6,4-9.9h-7.1c-9.2,22-14.2,46.1-14.2,71.4,0,25.1,5,49.1,14.1,71h7.1c-17.5-40.6-20.2-87.7-3.8-132.5Z"/>
  <path class="st3" d="M87.1,274.8l1.9-97.5c0-.8.6-1.4,1.4-1.4h0s0,0,0,0h28.6s.8-41.5.8-41.5h-50.3c-1.4,3.2-2.7,6.5-4,9.9-16.4,44.8-13.7,91.9,3.8,132.5h17.6s0-1.9,0-1.9Z"/>
  <path class="st3" d="M36.6,175.9c.1,0,.2.2.3.3,0,0,.2.2.3.3,0,0,.2.2.3.3,0-.2,0-.3,0-.5-.2-.2-.5-.4-.9-.4Z"/>
  <path class="st3" d="M48.5,134.4c.6-1.6,1.3-3.2,1.9-4.8H8.9s-.9,46.3-.9,46.3h5s.8-41.5.8-41.5h34.7Z"/>
  <path class="st3" d="M36.9,230.7l-.9,46.1h5s.4-22,.4-22c-2-7.9-3.5-15.9-4.6-24.1Z"/>
  <path class="st3" d="M42.1,218l.6-32.3c-.7,6.6-1,13.4-1,20.1,0,4.1.1,8.2.4,12.2Z"/>
  <path class="st3" d="M64.5,129.6h-7c-.2.5-.4,1-.6,1.5-.5,1.1-.9,2.2-1.4,3.3h7c.7-1.6,1.4-3.2,2.1-4.8Z"/>
  <path class="st3" d="M52,134.4c.6-1.6,1.3-3.2,2-4.8h-3.5c-.7,1.6-1.3,3.2-1.9,4.8h3.5Z"/>
  <path class="st3" d="M41.7,240.8c-2.1-11.4-3.2-23.1-3.2-35,0-9.1.6-18,1.8-26.8-.9-.9-1.9-1.9-2.8-2.8,0,0,0,0,0,0,0,0,0,0,0,0,0,.2,0,.3,0,.5,0,0,0,0,0,0,.2.2.3.3.5.5,0,0,0,0,0,0l-1.1,53.5c1,8.2,2.6,16.2,4.6,24.1l.3-13.9ZM37.6,176.4s0,0,0,.1c0,0,0,0,0-.1ZM37.8,176.6s0,0,0,.1c0,0,0,0,0-.1ZM37.9,176.8s0,0,0,.1c0,0,0,0,0-.1Z"/>
  <path class="st3" d="M41.7,205.8c0-6.8.3-13.5,1-20.1v-3.6c0-.4,0-.8-.3-1-.7-.7-1.4-1.4-2.1-2-1.2,8.8-1.8,17.7-1.8,26.8,0,12,1.1,23.7,3.2,35l.5-22.8c-.3-4-.4-8.1-.4-12.2Z"/>
  <path class="st3" d="M55.4,134.4c.4-1.1.9-2.2,1.4-3.3.2-.5.4-1,.6-1.5h-3.5c-.7,1.6-1.3,3.2-2,4.8h3.4Z"/>
  <path class="st3" d="M71.7,129.6h-7.2c-.7,1.6-1.4,3.2-2.1,4.8h7.1c.7-1.6,1.4-3.2,2.2-4.8Z"/>
  <path class="st3" d="M119.9,129.6h-48.3c-.7,1.6-1.5,3.2-2.2,4.8h50.3s0-4.8,0-4.8Z"/>
  <path class="st3" d="M89,177.3l-1.9,97.5,2-97.5c0-.8.6-1.4,1.4-1.4h0c-.8,0-1.4.6-1.4,1.4Z"/>
  <path class="st3" d="M180.7,183.7c0,0,0-.2,0-.3l.3-14.5c0-.8.7-1.4,1.4-1.4h16.4s30.9,0,30.9,0l.7-33.1h-93.8s-2.8,142.3-2.8,142.3h44.9s48.7,0,48.7,0l.7-33.1h-42.2c-.4,0-.7-.2-1-.4-1.6-1.6-3.3-3.2-4.9-4.8,0,0,0,0,.1,0,0,0-.1-.1-.2-.2,0,0,0,0,0,.1,0,0,0,0,0-.1-.2-.2-.3-.5-.3-.9h0c0,0,0,.2,0,.3,0,0,0-.2,0-.3l.3-15.7s0,0,0-.1c0,0,0-.1,0-.2,0,0,0,0,0,0,.1-.5.6-1,1.1-1.1,0,0,0,0,0,0,0,0,.2,0,.2,0h0s0,0,0,0h41.6s.4-20.2.4-20.2l.2-10.5h-36.6c-.4,0-.7-.2-1-.4-1.6-1.6-3.3-3.2-4.9-4.8,0,0,0,0,.1,0-.3-.3-.5-.6-.5-1.1,0,0,0,0,0,0,0,0,0,.2,0,.3ZM179.8,238.3s0,0,0-.1c0,0,0,0,0,.1ZM179.7,238.1c0,0,0-.1,0-.2,0,0,0,.1,0,.2ZM181.1,184.4s0,0,0-.1c0,0,0,0,0,.1ZM180.9,184.2s0,0,0-.1c0,0,0,0,0,.1ZM180.8,183.9s0,0,0-.1c0,0,0,0,0,.1Z"/>
  <path class="st3" d="M180,221.5c.1-.5.5-.9,1.1-1.1-.5.1-1,.5-1.1,1.1Z"/>
  <path class="st3" d="M181.1,220.4c0,0,.2,0,.2,0h0c0,0-.2,0-.2,0Z"/>
  <path class="st3" d="M181.2,184.5s0,0-.1,0c1.6,1.6,3.3,3.2,4.9,4.8.2.2.6.4,1,.4h36.6s0-4.8,0-4.8h-41.5c-.5-.5-1-1-1.4-1.4,0,.4.2.8.5,1.1ZM182.1,184.8c0,0-.2,0-.3,0,0,0,.2,0,.3,0ZM181.7,184.7c0,0-.1,0-.2,0,0,0,.1,0,.2,0ZM181.4,184.6s0,0-.1,0c0,0,0,0,.1,0Z"/>
  <polygon class="st3" points="230.4 134.4 229.8 167.5 198.8 167.5 229.8 167.5 230.5 129.6 131.7 129.6 128.8 276.8 133.8 276.8 136.7 134.4 230.4 134.4"/>
  <path class="st3" d="M179.9,238.4s0,0,0,0c0,0,0,0,0,0,0,0,.1.1.2.2,0,0,0,0-.1,0,1.6,1.6,3.3,3.2,4.9,4.8.2.2.6.4,1,.4h42.2s0-4.8,0-4.8h-47.2s-1.4-1.4-1.4-1.4c0,.3.1.6.3.9ZM181,238.9c0,0-.2,0-.3,0,0,0,.2,0,.3,0ZM180.6,238.9c0,0-.1,0-.2,0,0,0,.1,0,.2,0ZM180.4,238.8c0,0-.1,0-.2,0,0,0,0,0,.2,0Z"/>
  <polygon class="st3" points="222.9 220.4 223.3 200.2 222.9 220.4 222.9 220.4"/>
  <path class="st3" d="M180,221.5c0,0,0,.1,0,.2,0,0,0-.1,0-.2Z"/>
  <polygon class="st3" points="227.5 276.8 227.5 276.8 178.8 276.8 227.5 276.8"/>
  <path class="st3" d="M290.9,232.5s0,0,0,0c0,0,0,0,0,0h0Z"/>
  <path class="st3" d="M381.2,203.4c0-.5,0-1,0-1.5,0-1.1,0-2.1,0-3.1,0-.3,0-.5,0-.8,0-.8,0-1.6-.2-2.5,0-.2,0-.5,0-.7,0-1-.2-2.1-.3-3.1,0,0,0,0,0-.1-.1-1-.3-1.9-.4-2.9,0-.2,0-.5-.1-.7-.2-.8-.3-1.7-.5-2.5,0-.2,0-.3,0-.5-.2-1-.5-2-.7-3,0,0,0-.1,0-.2-.3-.9-.5-1.8-.8-2.7,0-.2-.1-.3-.2-.5-.3-.9-.6-1.8-1-2.7,0,0,0,0,0,0-.4-1-.8-2-1.2-2.9,0,0,0,0,0-.1-.4-.9-.8-1.8-1.2-2.7,0-.1-.1-.2-.2-.3-.9-1.9-1.9-3.7-3-5.4,0,0,0,0,0,0-.5-.9-1.1-1.7-1.7-2.5,0,0,0,0,0-.1-1.2-1.7-2.5-3.4-3.8-5,0,0,0,0,0,0-.7-.8-1.4-1.6-2.1-2.3,0,0,0,0,0,0-4.5-4-9.6-7.5-15.3-10.4-13.3-6.8-32.6-9.3-58.5-9.3h-42.2s-2.8,142.4-2.8,142.4h16.1s17,0,17,0c.6,0,1.2,0,1.8,0,3,0,5.9,0,8.8,0,2.7,0,5.4-.1,7.9-.2,8.7-.4,16.8-1.1,24.3-2.6,3.4-.7,6.6-1.5,9.8-2.5,6.9-2.1,13.3-5.1,19.4-9.3,19.8-13.4,31.1-34.5,31.6-58.8ZM334.2,208.2c-.1,5.2-.9,9.7-2.5,13.6-1.6,3.9-3.9,7.1-7,9.5-6.2,5-15.4,7.2-27.4,7.4-.4,0-.8-.1-1-.4l-4.9-4.8c0,0-.1-.1-.2-.2,0,0,0,0,0,0,0,0,0,0,0,0,0,0,0-.2-.1-.3,0,0,0,0,0,0,0,0,0,0,0,0,0,0,0,0,0-.1,0,0,0,0,0,0,0,0,0,0,0,0,0,0,0-.2,0-.3,0,0,0,0,0,0l.8-41.3.3-16.8c0,0,0-.1,0-.2,0-.4.3-.7.6-.9.2-.2.5-.2.8-.2.8,0,1.5,0,2.3,0,8.2,0,14.9,1.3,20.2,4,.7.3,1.3.7,1.9,1.1.1,0,.2.2.3.2.5.3,1,.6,1.4,1,.2.1.4.3.6.5.4.3.7.6,1.1.9.2.1.3.3.4.4.3.3.7.7,1,1-.3-.3-.6-.7-1-1,0,0,.2.2.2.2,1.6,1.5,3.1,3,4.7,4.6,2.4,2.3,4.2,5.1,5.4,8.4,1.4,3.7,2.1,8,2.1,12.9,0,.3,0,.6,0,1Z"/>
  <path class="st3" d="M320.2,179.8c.4.3.7.6,1.1.9-.3-.3-.7-.6-1.1-.9Z"/>
  <path class="st3" d="M318.3,178.3c.5.3,1,.6,1.4,1-.5-.3-.9-.7-1.4-1Z"/>
  <path class="st3" d="M295.8,173c8.2,0,14.9,1.3,20.2,4,.7.3,1.3.7,1.9,1.1-.6-.4-1.2-.7-1.9-1.1-5.3-2.7-12-4-20.2-4-.8,0-1.5,0-2.3,0-.3,0-.6,0-.8.2.2-.2.5-.2.8-.2.8,0,1.5,0,2.3,0Z"/>
  <path class="st3" d="M291,232.9c0,0,0-.2,0-.3,0,.1,0,.2,0,.3Z"/>
  <path class="st3" d="M326.7,185.9c-1.6-1.5-3.1-3-4.7-4.6,0,0-.2-.2-.2-.2.3.3.6.7,1,1-.3-.4-.7-.7-1-1,1.7,1.7,3.2,3.6,4.3,5.9-.2-.4-.4-.8-.7-1.2.2.4.5.8.7,1.2.1.3.3.5.4.8,0,0,0,0,0,0,0,0,0,0,0,0,.3.6.5,1.2.8,1.8,1.4,3.7,2.1,8,2.1,12.9,0,.3,0,.6,0,1-.1,5.2-.9,9.7-2.5,13.6-1.6,3.9-3.9,7.1-7,9.5-6.2,5-15.3,7.2-27.4,7.4l-1.4-1.4s0,0,0,0c0,.1,0,.2,0,.3,0,0,0,0,0,.1,0,0,0,.1,0,.2,0,0,0-.1,0-.2,0,0,0,.2.1.3,0,0,.1.2.2.2,0,0-.1-.1-.2-.2,0,0,.1.2.2.2l4.9,4.8c.3.3.6.4,1,.4,12.1-.2,21.2-2.4,27.4-7.4,3.1-2.5,5.5-5.7,7-9.5,1.6-3.9,2.4-8.4,2.5-13.6,0-.3,0-.7,0-1,0-4.9-.7-9.2-2.1-12.9-1.2-3.3-3.1-6.1-5.4-8.4ZM322.9,182.3c.4.4.8.9,1.1,1.4-.4-.5-.7-.9-1.1-1.4ZM324.2,183.8c.4.5.7,1,1,1.6-.3-.5-.7-1.1-1-1.6Z"/>
  <path class="st3" d="M292.1,174.2c0,0,0,.1,0,.2l-.3,16.8.3-16.8c0,0,0-.1,0-.2Z"/>
  <path class="st3" d="M380.6,191.7c.1,1,.2,2.1.3,3.1,0-1-.2-2.1-.3-3.1Z"/>
  <path class="st3" d="M381,195.5c0,.8.1,1.6.2,2.5,0-.8,0-1.6-.2-2.5Z"/>
  <path class="st3" d="M381.2,201.9c0,.5,0,1,0,1.5-.5,24.3-11.8,45.4-31.6,58.8-6.1,4.2-12.5,7.1-19.4,9.3,6.9-2.1,13.4-5.1,19.5-9.3,19.8-13.4,31.1-34.5,31.6-58.8,0-.5,0-1,0-1.5,0-1.1,0-2.1,0-3.1,0,1,0,2.1,0,3.1Z"/>
  <path class="st3" d="M379.5,185.5c.2.8.4,1.7.5,2.5-.2-.8-.3-1.7-.5-2.5Z"/>
  <path class="st3" d="M289.4,134.5c25.9,0,45.2,2.5,58.5,9.3,5.7,2.9,10.8,6.4,15.3,10.4-1-1-2-2.1-3-3.1-.4-.4-.7-.7-1.1-1,.4.3.8.7,1.1,1-1-.9-2-1.8-3-2.7.4.3.7.6,1.1,1-.4-.3-.7-.6-1.1-1-.3-.3-.7-.6-1-.8-.3-.3-.6-.5-1-.8-.3-.3-.7-.5-1-.8-.4-.3-.8-.6-1.2-.9-.3-.2-.7-.5-1-.7-.3-.2-.6-.4-1-.7-.4-.3-.9-.6-1.3-.9-.4-.2-.7-.5-1.1-.7-.3-.2-.7-.4-1-.6-.5-.3-.9-.6-1.4-.8-1.1-.6-2.2-1.2-3.3-1.8-13.3-6.8-32.6-9.3-58.5-9.3h-42.2s-2.9,147.2-2.9,147.2h5s2.8-142.4,2.8-142.4h42.2Z"/>
  <path class="st3" d="M380.1,188.7c.2,1,.3,1.9.4,2.9-.1-1-.3-1.9-.4-2.9Z"/>
  <path class="st3" d="M363.3,154.2c.7.8,1.4,1.5,2.1,2.3-.7-.8-1.4-1.6-2.1-2.3Z"/>
  <path class="st3" d="M260.5,276.8h17c.6,0,1.2,0,1.8,0-.6,0-1.2,0-1.8,0h-17Z"/>
  <path class="st3" d="M371,164.4c1.1,1.8,2.1,3.6,3,5.4-.9-1.9-1.9-3.7-3-5.4Z"/>
  <path class="st3" d="M365.4,156.6c1.4,1.6,2.6,3.3,3.8,5-1.2-1.7-2.5-3.4-3.8-5Z"/>
  <path class="st3" d="M348.7,142.2c.4.2.8.5,1.1.7-.4-.2-.8-.5-1.1-.7Z"/>
  <path class="st3" d="M320.3,273.9c-7.5,1.5-15.6,2.2-24.3,2.6,8.7-.4,16.8-1.1,24.3-2.6Z"/>
  <path class="st3" d="M346.3,140.7c.5.3,1,.5,1.4.8-.5-.3-.9-.6-1.4-.8Z"/>
  <path class="st3" d="M351.1,143.8c.3.2.6.4,1,.7-.3-.2-.6-.4-1-.7Z"/>
  <path class="st3" d="M377.8,179.1c.3.9.6,1.8.8,2.7-.3-.9-.5-1.8-.8-2.7Z"/>
  <path class="st3" d="M353.1,145.2c.4.3.8.6,1.2.9-.4-.3-.8-.6-1.2-.9Z"/>
  <path class="st3" d="M375.5,172.9c.4,1,.8,1.9,1.2,2.9-.4-1-.8-2-1.2-2.9Z"/>
  <path class="st3" d="M376.7,175.9c.3.9.7,1.8,1,2.7-.3-.9-.6-1.8-1-2.7Z"/>
  <path class="st3" d="M374.2,170.1c.4.9.8,1.8,1.2,2.7-.4-.9-.8-1.8-1.2-2.7Z"/>
  <path class="st3" d="M378.7,182c.3,1,.5,2,.7,3-.2-1-.5-2-.7-3Z"/>
  <path class="st3" d="M369.3,161.7c.6.8,1.1,1.7,1.7,2.5-.5-.9-1.1-1.7-1.7-2.5Z"/>
  <path class="st3" d="M355.3,146.8c.3.3.6.5,1,.8-.3-.3-.6-.5-1-.8Z"/>
  <path class="st3" d="M420.3,134.6c0,0-.1,0-.2,0,3.9,10.8,6.9,22,9,33.8,1.1-.7,2.1-1.5,3-2.4,1.3-1.3,2.5-2.8,3.3-4.5,1.6-3,2.5-6.7,2.6-10.8v-.6c0-.7,0-1.4,0-2.1,0-.2,0-.4,0-.6,0-.5-.1-1-.2-1.5,0-.2,0-.4,0-.6,0-.5-.2-1.1-.3-1.6,0,0,0-.2,0-.3-.2-.6-.3-1.1-.5-1.7,0-.2-.2-.4-.2-.6-.1-.3-.3-.7-.4-1-.1-.2-.2-.4-.3-.7-.2-.3-.4-.6-.5-.9-.1-.2-.2-.4-.3-.5-3.6-2.3-8.4-3.6-14.5-3.6Z"/>
  <path class="st3" d="M416.6,172c2.4-.1,4.5-.4,6.5-1-2.1-12.3-5.3-24.3-9.5-35.8-2.4.5-4.6,1.2-6.4,2.2,4.2,11,7.4,22.6,9.5,34.6Z"/>
  <path class="st3" d="M429.1,168.4c-2.1-11.7-5.1-23-9-33.8-.2,0-.4,0-.5,0-1,0-2,0-2.9.2,4.2,11.3,7.3,23,9.4,35.2,1.1-.5,2.1-1,3-1.6Z"/>
  <path class="st3" d="M423,171c1.1-.3,2.1-.7,3-1.1-2.1-12.1-5.2-23.9-9.4-35.2-1.1.1-2.2.3-3.2.5,4.3,11.5,7.5,23.5,9.5,35.8Z"/>
  <path class="st3" d="M401.2,142c3.7,9.6,6.5,19.6,8.5,29.8.5,0,1,.1,1.5.2.3,0,.6,0,.8,0,.8,0,1.6,0,2.4,0,0,0,0,0,.1,0,.2,0,.5,0,.7,0,0,0,0,0,0,0,.2,0,.3,0,.5,0,.3,0,.6,0,.8,0-2.1-12-5.3-23.6-9.5-34.6-1.7.9-3.2,1.9-4.5,3.1-.5.5-.9,1-1.4,1.5Z"/>
  <path class="st3" d="M396.6,156.1c0,4.8,1.2,8.9,3.4,12.2,0,0,.2.1.3.2.3.2.5.3.8.5.3.2.6.3.9.5.3.1.5.3.8.4.4.2.8.3,1.2.5.3.1.6.2.9.3.5.2,1.1.4,1.7.5.3,0,.6.1.8.2.4,0,.9.2,1.4.3.3,0,.6,0,.9.1,0,0,0,0,0,0-2-10.2-4.8-20.1-8.5-29.8-2.9,3.5-4.5,8-4.6,13.6v.5Z"/>
  <path class="st3" d="M420.3,134.6c6.1,0,10.9,1.3,14.5,3.6.1.2.2.4.3.5-.8-1.2-1.7-2.4-2.7-3.4-3.2-3-7.9-5-14.1-5.5.6,1.6,1.2,3.1,1.8,4.7,0,0,.1,0,.2,0Z"/>
  <path class="st3" d="M435.7,139.7c.1.2.2.4.3.7-.1-.2-.2-.4-.3-.7Z"/>
  <path class="st3" d="M429.1,168.4s0,0,0,0c1.1-.7,2.1-1.5,3-2.4,1.3-1.3,2.5-2.8,3.3-4.5-.9,1.7-2,3.2-3.3,4.5-.9.9-1.9,1.7-3,2.4Z"/>
  <path class="st3" d="M437.7,145.5c0,.2,0,.4,0,.6,0-.2,0-.4,0-.6Z"/>
  <path class="st3" d="M438,147.6c0,.2,0,.4,0,.6,0-.2,0-.4,0-.6Z"/>
  <path class="st3" d="M436.5,141.4c0,.2.2.4.2.6,0-.2-.2-.4-.2-.6Z"/>
  <path class="st3" d="M437.3,143.7c0,0,0,.2,0,.3,0,0,0-.2,0-.3Z"/>
  <path class="st3" d="M407.1,137.4c1.9-1,4-1.7,6.4-2.2-.7-1.8-1.3-3.5-2-5.2-2.5.3-4.8.8-6.8,1.5.8,2,1.6,3.9,2.4,5.9Z"/>
  <path class="st3" d="M416.6,172c2.4-.1,4.5-.4,6.5-1,0,0,0,0,0,0-2,.5-4.1.9-6.5,1h0Z"/>
  <path class="st3" d="M414.8,129.8c.7,1.6,1.3,3.3,1.9,5,.9,0,1.9-.1,2.9-.2.2,0,.4,0,.5,0-.6-1.6-1.2-3.1-1.8-4.7-1,0-1.9-.1-3-.1-.2,0-.4,0-.6,0Z"/>
  <path class="st3" d="M426.1,170s0,0,0,0c1.1-.5,2.1-1,3-1.6,0,0,0,0,0,0-.9.6-2,1.1-3,1.6Z"/>
  <path class="st3" d="M423,171c1.1-.3,2.1-.7,3-1.1,0,0,0,0,0,0-1,.4-2,.8-3,1.1,0,0,0,0,0,0Z"/>
  <path class="st3" d="M411.5,130c.7,1.7,1.4,3.5,2,5.2,1-.2,2.1-.4,3.2-.5-.6-1.7-1.2-3.3-1.9-5,0,0,0,0-.1,0-1.1,0-2.2.1-3.2.2Z"/>
  <path class="st3" d="M416.6,172h0c-.3,0-.5,0-.8,0,.3,0,.6,0,.8,0Z"/>
  <path class="st3" d="M401.2,142c.4-.5.9-1,1.4-1.5,1.3-1.2,2.8-2.2,4.5-3.1-.8-2-1.5-4-2.4-5.9-2.5.9-4.5,2.1-6.3,3.6,1,2.3,1.9,4.6,2.8,6.9Z"/>
  <path class="st3" d="M415.3,172.1c-.2,0-.5,0-.7,0,0,0,0,0-.1,0,0,0,0,0,.1,0,.2,0,.5,0,.7,0Z"/>
  <path class="st3" d="M411.2,171.9c.3,0,.6,0,.8,0-.3,0-.6,0-.8,0Z"/>
  <path class="st3" d="M404.9,170.7c-.3,0-.6-.2-.9-.3.3.1.6.2.9.3Z"/>
  <path class="st3" d="M401.1,169c-.3-.2-.5-.3-.8-.5.3.2.5.3.8.5Z"/>
  <path class="st3" d="M391.7,150.8v.5c0,6.3,2,11.4,5.8,15,.8.7,1.6,1.4,2.6,2-2.2-3.3-3.4-7.4-3.4-12.2v-.5c.1-5.5,1.7-10.1,4.6-13.6-.9-2.3-1.8-4.6-2.8-6.9-.2.2-.5.4-.7.6-3.8,3.6-5.8,8.7-6,15Z"/>
  <path class="st3" d="M409.7,171.8c-.3,0-.6,0-.9-.1.3,0,.6,0,.9.1Z"/>
  <path class="st3" d="M402.8,169.9c-.3-.1-.5-.3-.8-.4.3.1.5.3.8.4Z"/>
  <path class="st3" d="M407.4,171.4c-.3,0-.6-.1-.8-.2.3,0,.6.1.8.2Z"/>
</svg>