<?xml version="1.0" encoding="utf-8"?>
<!-- Generator: Adobe Illustrator 12.0.1, SVG Export Plug-In . SVG Version: 6.00 Build 51448)  -->
<!DOCTYPE svg PUBLIC "-//W3C//DTD SVG 1.1//EN" "http://www.w3.org/Graphics/SVG/1.1/DTD/svg11.dtd" [
	<!ENTITY ns_svg "http://www.w3.org/2000/svg">
	<!ENTITY ns_xlink "http://www.w3.org/1999/xlink">
]>
<svg  version="1.1" id="Calque_1" xmlns="&ns_svg;" xmlns:xlink="&ns_xlink;" width="380.923" height="380.95"
	 viewBox="0 0 380.923 380.95" overflow="visible" enable-background="new 0 0 380.923 380.95" xml:space="preserve">
<rect fill="#FFDF00" width="380.923" height="380.95"/>
<g>
	<g>
		<path fill="#004F9B" d="M234.379,145.566L115.739,145.8l-33.219,0.39l-3.613,2.052c-1.642,0.939-0.41-0.799-0.879,1.075
			c-0.822,3.282-1.858,2.835,1.025,5.661l12.656,11.836l8.398,9.077l-1.564,27.75l-0.386,3.553L81.63,223.839
			c-5.2-0.433-6.003-0.399-8.227,1.943c-1.875,1.761-3.55,1.905-1.563,4.431l-1.058,47.644c1.578,2.639,1.448,3.773,2.621,5.764
			c1.288,1.997,0.638,2.115,2.864,2.347c-0.76-0.167,3.647-1.302,5.336-3.376l9.259-10.195l3.902-3.362
			c0.275,3.974,0.059,11.647-0.258,16.409l-21.103,20.065c-1.407,1.289-1.668,1.979-2.606,3.388
			c-1.172,2.578-1.238,4.688,0.521,7.034c1.524,2.577,2.279,2.747,5.211,2.865l67.478-0.522l31.263-0.78
			c14.299,2.813,30.579,2.37,41.949-6.774c2.108,1.759,6.251,4.964,8.594,6.252c10.316,6.561,23.376,3.515,34.394,0
			c0.936-0.582,3.843,0.432,4.428,0.784h29.179l19.541,0.259l4.432-1.302c2.107-0.588,1.092-0.639,1.561-2.865
			c0.352-2.113,1.003-2.908-0.521-4.43c-5.038-5.628-9.523-12.118-14.331-17.977l-0.52-4.69l0.782-24.232l-2.085-9.376
			c-1.056-8.673-6.619-16.103-14.59-20.324l3.388-3.127c6.095-5.505,8.076-10.825,10.422-17.973
			c1.288-5.043,2.983-9.579,0.518-14.852c0.589-1.289,0.641-4.873,0.522-6.515c-1.64-9.141-4.195-14.435-9.119-22.406
			c-5.857-10.313-14.031-14.719-24.816-17.064c-10.897-2.812-20.35,0.186-29.372,5.342c-1.993,1.053-6.723,4.532-8.599,5.47
			c-0.352-2.577-1.681-11.75-1.563-14.329L234.379,145.566z"/>
		<path fill="#009EE0" d="M151.497,144.237c6.051,2.353,17.926,4.201,20.713,5.08c0,0.118-21.489,0.016-21.489,0.016l-69.97-0.117
			c-0.352,0.234-0.937,0-1.054,0.469c0.703,1.522,2.344,2.578,3.516,3.75l19.222,18.167c0.82,0.937,0.468,2.225,0.702,3.398
			l-0.353,32.7l-0.467,0.936l-13.243,13.129l-6.446,6.21l-0.937,0.353l-5.393,0.233l-0.468,0.82l-0.117,6.681v39.146l0.233,5.275
			c0.234,0.466,0.82-0.118,1.055-0.354l19.338-21.212c0.704-0.706,1.406-1.992,2.578-1.757l0.236,0.585l0.117,10.901l-0.117,17.463
			c0,1.521-1.407,2.343-2.343,3.397l-22.271,21.799c-0.233,0.351-0.469,0.819-0.469,1.291s0.629,0.49,0.864,0.726h6.513
			l74.784,0.095c4.337-0.117,9.141,0,13.243-0.235c0.469-1.057-0.822-1.757-1.171-2.577c0.35-0.469,1.056,0,1.641,0.232
			c13.948,6.916,33.988,5.512,46.178-4.337c0.819-0.583,1.64-1.756,2.812-1.286c1.408,1.17,2.464,2.692,3.987,3.862
			c6.095,5.746,14.179,7.739,22.852,6.566c5.509-0.82,10.668-2.696,15.707-4.922c1.641-0.235,0.819,1.992,2.107,2.348l20.042,0.113
			l31.761-0.235c0.236-0.114,0.589-0.233,0.706-0.585c-0.819-1.876-2.578-3.517-3.982-5.155l-11.723-13.716l-0.472-1.172
			l0.121-17.464v-4.333l0.232-13.597c-1.522-8.321-7.149-17.58-15.821-20.277c-2.345-0.7-4.688-1.405-7.035-1.876
			c-0.231,0-0.231-0.231-0.113-0.467c7.032-2.461,13.947-8.789,17.228-15.822c2.579-4.573,4.569-9.493,5.51-14.882
			c0-0.705,0.469-1.998-0.47-2.463l-1.876,0.114l-12.189,1.291c-3.865,0.117-8.089,0.585-11.721-0.354l-0.115-0.114l0.467-0.354
			l9.611-2.224l13.716-2.932c0.816-0.351,2.107-0.236,2.577-1.173v-1.526c-2.695-10.897-4.688-22.5-14.417-30.12
			c-10.665-9.256-27.543-12.305-40.671-6.328c-6.679,2.696-12.538,7.619-18.281,12.775c-0.588,0.234-0.822-0.468-0.822-0.938
			l0.292-23.067c-0.233-0.935,5.081-0.584,5.081-0.584c0.235,3.047,0,10.096,0.019,12.988c0.118,0.35,0.353,0.115,0.585,0
			c7.15-5.04,15.004-8.557,23.912-9.847c10.667-0.703,20.274,2.109,28.948,7.033c11.133,6.797,16.058,18.635,18.985,30.006
			l1.409,7.265c0,1.639-0.819,2.93-1.522,4.221c2.692,3.867,0.585,8.787,0,13.01c-2.348,7.617-5.159,15.117-11.486,20.977
			l-1.876,1.875c0,0.705,0.701,0.939,1.171,1.289c8.906,4.924,14.415,14.183,14.181,24.262l0.118,33.168l4.101,5.036l11.021,13.131
			c0.936,1.407,1.636,3.631,0.7,5.277c-1.756,3.161-5.391,3.396-8.671,3.396h-49.695c-0.585-0.35-0.703-1.056-1.29-1.404
			c-10.665,3.63-25.315,6.679-35.863,0.698c-3.164-1.405-5.979-3.513-8.674-5.86h-0.467c-10.665,9.378-26.958,9.259-40.788,7.038
			h-29.301l-38.912,0.113H75.126c-2.579-0.354-5.158-2.579-5.862-5.039c-1.054-3.281,0.822-5.978,2.932-8.207l21.446-20.976
			c0.354-4.571,0.236-9.145,0.354-13.833c-0.118-0.231-0.469-0.47-0.82-0.231l-11.37,12.542c-1.407,1.874-3.399,3.747-5.977,3.513
			c-1.876-0.236-3.752-0.936-4.923-2.812c-1.758-3.519-0.469-7.971-0.819-11.836l0.116-44.07c0.118-1.992,1.642-3.986,3.518-4.806
			c1.874-0.584,4.335-0.351,6.329-0.47l16.761-16.526l0.585-0.819l0.235-30.706c-2.464-2.579-5.276-5.159-7.853-7.5l-10.197-9.612
			c-1.994-1.874-4.689-3.75-5.274-6.446c-0.469-1.757,0.116-3.516,1.289-4.923c1.407-1.521,3.072-2.399,5.299-2.282l40.88,0.055
			L151.497,144.237z"/>
		<path fill="#009EE0" d="M226.139,146.19c-3.398,2.699-16.466,10.643-19.979,12.988c-1.878-0.12-3.283-1.289-5.041-1.758
			c-15.235-4.686-30.474,1.174-40.905,12.775c-8.438,9.375-11.134,22.388-8.438,35.162c0.821,3.164,1.759,6.33,2.461,9.608
			c0,0.12-0.116,0.237-0.235,0.237l-0.585-0.237c-2.814-2.343-5.742-4.453-8.088-7.265l-0.233-2.109l0.118-33.169l0.469-0.82
			l22.621-19.105l7.62-6.827l8.729,0.39c11.133,0.821,19.541-0.521,31.783-0.521L226.139,146.19z"/>
		<path fill="#FFFFFF" d="M152.539,155.734c0.091,0.083,0.292,0.866,0.175,1.099l-4.454,4.221l-9.258,8.319
			c-0.938,0.822-0.596,2.141-0.596,3.196l0.009,27.514l0.116,9.843l0.354,0.94l16.526,15.47c0.231,0.349,0.584,0.82,0.116,1.055
			l-1.566,0.608l-60.2-0.023c-0.233-0.116-0.584-0.235-0.584-0.585l0.233-0.586l6.681-6.915l9.141-9.023
			c1.055-1.524,0.47-3.867,0.588-5.861l-0.118-29.653c-0.117-1.757,0.467-3.985-0.47-5.51L95.4,156.715
			c-0.118-0.233-0.352-0.466-0.236-0.701l0.498-0.202L152.539,155.734z"/>
		<path fill="#FFFFFF" d="M218.816,161.172v29.418c-0.115,0.35-0.469,0.231-0.705,0.117c-5.507-6.447-12.54-11.721-19.688-15.239
			c-3.985-1.641-9.729-3.163-13.595-0.116c-3.634,2.696-4.807,6.797-4.337,11.136c0.937,9.375,7.618,19.104,16.876,22.149
			c4.923,1.289,11.369,1.173,16.059-0.702c4.102-1.641,7.852-3.983,11.249-7.266c1.059-0.938,0.47-2.345,0.47-3.519
			c-0.47-8.907,2.345-17.229,7.617-24.142c10.082-11.368,27.193-15,41.257-9.141c6.917,2.812,13.361,9.607,16.176,16.524
			c1.404,3.047,2.459,6.33,2.813,9.842c0,0.473-0.47,0.819-0.819,1.056l-20.396,5.159l-15.004,3.75
			c-0.231,0.119-0.585,0.47-0.585,0.706c0.236,1.054,1.291,1.87,2.111,2.576c3.983,3.633,8.789,5.155,14.064,5.86
			c6.095,0.702,12.543,0.235,18.4-0.587c0.234,0,0.586,0.114,0.586,0.47c-1.287,4.805-4.104,9.139-8.087,12.773
			c-7.033,5.978-16.175,7.618-25.552,7.269c-11.483-1.055-22.504-7.034-28.245-17.579l-2.461-5.161
			c-0.235-0.348-0.585-0.468-0.82-0.232c-2.932,6.915-7.619,14.418-14.769,18.4c-9.728,5.979-24.611,7.031-35.043,1.642
			c-12.423-5.86-18.987-18.987-18.518-32.469c1.056-9.841,5.157-18.866,13.597-25.078c3.397-2.345,6.797-4.572,11.016-5.042
			c7.384-1.522,14.884,0.12,21.332,2.815c0.82,0.352,1.756,0.818,2.696,0.468l11.249-6.331
			C218.111,160.468,218.701,160.585,218.816,161.172z"/>
		<path fill="#004F9B" d="M266.284,176.877c1.407,1.992,1.874,4.569,1.76,7.029c0,0.588-0.471,0.939-0.94,1.054
			c-5.274,1.29-10.429,2.816-15.823,3.867c-0.587,0.12-1.288-0.114-1.522-0.7c-1.757-3.632-1.521-8.791,1.172-11.837
			c2.344-2.463,5.51-3.751,9.025-3.282C262.416,173.475,264.64,174.767,266.284,176.877z"/>
		<path fill="#009EE0" d="M259.719,180.156c0.354,0.354,0.702,0.822,0.354,1.175c-1.291,0.818-2.813,1.172-4.337,1.172
			c-0.467-0.236-0.467-0.82-0.354-1.172c0.354-0.939,1.292-1.642,2.226-1.761C258.429,179.455,259.132,179.689,259.719,180.156z"/>
		<path fill="#009EE0" d="M200.765,183.323l14.887,14.299c0.353,0.349,0.588,1.054,0.234,1.521
			c-5.158,3.401-12.892,4.339-18.52,1.526c-5.391-2.463-8.789-8.086-9.493-13.712c0-2.111,0.704-3.87,2.229-5.394
			c1.522-1.287,3.515-1.641,5.509-1.287C197.484,180.862,199.125,182.032,200.765,183.323z"/>
		<path fill="#009EE0" d="M227.956,221.059c7.738,9.029,18.637,12.779,29.89,14.536c0,0.234,0.233,0.234,0.233,0.468l-0.819,0.472
			c-5.511,1.521-10.548,3.982-15.589,6.325h-0.82l-17.346-17.931c0.232-1.522,1.876-2.227,2.813-3.397
			C226.669,221.059,227.374,220.712,227.956,221.059z"/>
		<path fill="#009EE0" d="M221.863,226.685l-0.467,23.209c0,0.232-0.234,0.466-0.353,0.701l-0.703-0.114
			c-6.915-7.032-14.77-12.306-23.676-15.004c-0.118-0.114-0.233-0.233-0.233-0.469c2.227-0.586,4.57-0.702,6.795-1.29
			c6.331-1.521,12.426-3.63,17.936-7.5C221.396,226.218,221.747,226.452,221.863,226.685z"/>
		<path fill="#009EE0" d="M182.367,234.188l0.116,0.234l-0.235,0.233c-6.444,1.174-12.421,3.4-17.813,6.798
			c-0.352,0.12-0.937,0-0.937-0.467c-0.119-1.875-0.353-3.868,0-5.624l0.817-0.471c2.932-0.351,6.33,0,9.379-0.351
			c0.349-0.235,0.349-0.586,0.116-0.823c-0.704-0.938-1.642-1.521-2.227-2.46l0.118-0.354
			C175.217,231.964,178.616,233.486,182.367,234.188z"/>
		<path fill="#FFFFFF" d="M155.41,234.772c0.351,0.119,0.703,0.59,0.703,0.941c0.351,7.498,0.351,14.767,0.82,22.267
			c0.236,0.352,0.469,0.231,0.703,0.115c7.736-11.134,19.458-17.697,33.052-17.109c12.072,1.056,23.91,9.373,29.068,20.628
			c0.935,2.696,2.461,5.39,2.342,8.321l-0.82,0.587l-36.216,9.607c-0.351,0.236-0.819,0.236-0.936,0.707
			c0,1.169,1.17,1.875,1.989,2.81c8.674,7.384,22.621,7.853,33.171,4.219c1.291-1.056,1.291-2.81,2.227-4.219
			c3.281-6.093,9.727-10.78,15.821-13.24c6.447-2.346,13.479-3.402,20.393-4.809c2.695-0.82,6.565-1.875,6.914-5.389
			c0.236-1.407-0.231-2.814-1.171-3.868c-2.576-2.229-6.913-1.758-10.08-1.171c-6.797,1.991-12.892,5.274-18.398,9.961
			c-1.876,1.873-3.984,3.163-6.097,4.337c-0.233,0-0.584,0.233-0.82,0l-0.351-0.588l0.117-27.071
			c0.233-0.471-0.117-1.292,0.584-1.527l0.59,0.117l9.376,10.082c0.353,0.467,1.054,0.585,1.64,0.352
			c12.893-6.917,29.651-14.298,44.536-6.8c4.219,2.229,8.205,6.448,8.44,11.368l0.231,22.623c0.236,0.351-0.116,0.701-0.116,0.936
			l0.234,15.005l0.938,1.754l8.79,10.2c0,0.235,0.118,0.467,0.118,0.703l-0.584,0.231l-11.724,0.121l-25.081-0.353
			c-1.522-1.057-0.584-3.283-1.174-4.809c-0.349-0.704-1.055-0.467-1.521-0.234c-9.846,6.329-24.613,10.199-35.514,3.52
			c-3.516-2.578-5.977-5.98-7.382-9.729c-0.353-0.471-0.938-0.352-1.407-0.115c-11.019,10.546-25.901,17.108-41.256,12.069
			c-10.432-3.165-21.097-12.896-22.739-24.026c-1.521-6.679-0.585-13.948,1.173-20.275l-0.469-0.94l-10.665-12.771
			c-0.938-1.176-2.578-0.592-3.87-0.706l-5.624,0.114c-0.353,0.119-0.87,0.584-0.87,0.938v38.785l0.987,1.766l15.824,14.537
			c0.231,0.47,0.818,0.936,0.467,1.408c-2.559,1.048-5.065,0.657-8.354,0.657H92.26c-1.303,0-2.51,0-3.188-0.426l0.234-0.585
			l8.673-8.791l7.268-7.032l0.917-1.728l0.019-38.004c-0.116-0.586,0-1.407-0.82-1.526c-2.694,0-5.625-0.229-8.32,0.119l-3.75,3.985
			l-9.611,10.665c-0.352,0.354-0.496,0.648-0.965,0.528c-0.672-0.445-0.586-1.758-0.586-2.638l0.026-25.082
			c0-0.583,0.117-1.174,0.703-1.405L155.41,234.772z"/>
		<path fill="#004F9B" d="M195.843,259.854c0.588,1.406,1.29,3.516,0.236,4.924l-1.407,0.587l-15.119,3.751
			c-0.587,0.116-1.29,0.116-1.641-0.468c-2.11-2.93-1.994-7.619-0.118-10.552c2.343-3.748,6.447-5.389,10.666-4.567
			C191.625,254.229,194.556,256.808,195.843,259.854z"/>
		<path fill="#009EE0" d="M148.612,261.967c0.349,0.699,0.116,1.64,0,2.461c-1.994,9.844-1.64,21.095,2.458,29.886
			c0,0.233,0.118,0.704-0.351,0.704c-3.046-1.995-5.978-4.923-8.905-7.502c-0.939-0.706-0.705-1.875-0.824-3.049
			c0-5.977-0.231-11.134-0.231-16.992l-0.118-12.305c0-0.707-0.118-1.408,0.469-1.761l0.705,0.233L148.612,261.967z"/>
		<path fill="#009EE0" d="M188.46,260.209c0.117,0.584-0.352,1.051-0.818,1.285c-1.409,0.12-3.05,1.527-4.222,0.12
			c-0.117-0.703,0-1.523,0.588-2.11c0.819-0.702,2.106-0.936,3.162-0.586C187.755,259.151,188.227,259.738,188.46,260.209z"/>
		<path fill="#004F9B" d="M264.527,275.209c0.113,3.985,0.113,8.324,0.113,12.423c-0.702,2.228-3.278,2.576-5.038,3.517
			c-2.577,1.056-6.213,1.528-8.673-0.234c-2.344-1.64-3.282-4.219-2.929-7.149c0.937-5.156,6.68-7.267,11.017-8.556
			c1.641-0.231,3.28-0.938,5.038-0.589L264.527,275.209z"/>
		<path fill="#009EE0" d="M217.527,276.967c-1.056,1.876-2.111,3.983-3.869,5.039c-4.686,0.938-10.079,1.405-14.769,0.236
			c-0.231-0.118-0.231-0.354,0-0.472c5.746-2.225,11.723-3.632,17.817-5.152C217.056,276.618,217.527,276.498,217.527,276.967z"/>
		<path fill="#009EE0" d="M259.367,282.591c0.119,0.82-0.468,1.644-1.17,1.994c-1.056,0.471-2.461,0.702-3.517,0.119
			c-0.117-1.293,1.522-1.524,2.461-2.228C257.726,282.124,259.132,281.188,259.367,282.591z"/>
		<g>
			<g>
				<path fill="#FFFFFF" stroke="#DB2F36" stroke-width="0.814" d="M215.774,51.464c5.536,1.142,11.067,2.207,16.361,3.663
					l9.163,2.671c7.268,2.34,14.451,4.959,21.474,8.17c0,0,39.274,0,39.769,0c0,0,0,67.436,0,69.249h-40.197
					c-11.673,6.812-24.522,11.435-37.758,14.202c-0.154-0.158-1.505,0.229-2.062,0.542c-34.471,7.148-71.87,1.535-100.656-14.711
					l-40.784-0.021l0.011-69.26L122.137,66c27.079-14.392,60.355-20.281,93.162-14.538L215.774,51.464z"/>
				<path fill="#DB2F36" d="M229.716,62.633l9.396,3.063c6.477,2.335,12.358,5.022,18.514,7.987h38.039v54.706h-37.674
					c-29.238,18.021-71.007,22.303-104.971,11.564l-9.398-3.222l-8.761-3.775c-3-1.364-5.84-2.965-8.679-4.564l-38.362-0.002V74.104
					l38.385-0.321c6.193-3.524,12.624-6.333,19.207-8.905l9.755-3.181c19.346-5.818,43.095-6.778,63.247-1.985
					C222.208,60.607,226.002,61.58,229.716,62.633z"/>
			</g>
		</g>
		<g>
			<path d="M146.501,85.341c0.702,1.171,1.054,2.578,2.111,3.633c0.585,1.522,0.585,3.164-0.353,4.455
				c-0.585,0.819-1.407,1.286-1.056,2.341c0.352,0.938,1.641,0.352,2.111,0.938l-0.038,21.168c0,0.236-0.197,0.868-0.433,0.985
				h-10.545c-0.704-0.352,0-1.524-0.94-1.876c-0.705,0.12-1.521,0.12-2.109-0.117l-0.235-2.463l-0.028-20.678
				c0-1.172,2.257-0.064,2.14-1.472c-1.876-0.585-2.343-2.58-2.579-4.336c0.118-1.407,0.352-2.93,1.641-3.868
				C139.351,82.645,144.158,82.645,146.501,85.341z"/>
			<path d="M199.594,83.814v2.815c0.469,0.351,1.171,0.233,1.76,0.351c0.233,1.758,0.115,3.401,0.35,5.041
				c0,0.351,0.471,0.587,0.704,0.703h3.632c0.702,0.468-0.117,1.758,0.702,2.109c0.705,0.116,1.527-0.119,2.112,0.234
				c0.118,0.586-0.118,1.407,0.353,1.639c0.703-1.874,2.577-3.045,4.219-4.099c2.343-1.173,5.039-0.938,7.736-1.407
				c4.92-0.119,9.96-0.119,13.945,2.228c1.757,1.991,4.103,3.161,5.156,5.507c1.992,5.273,2.11,12.541-1.991,16.762
				c-1.289,1.407-3.165,1.521-4.69,2.343c-5.741,1.171-13.477,1.991-18.751-0.821c-1.522-1.521-3.752-1.874-4.69-3.984
				c-2.343-3.283-2.106-7.97-2.106-12.072l-0.118-0.117l-5.861,0.117l-0.115,0.233v7.853c1.171,1.056,2.931,0.589,4.221,0.237
				c0.467,1.053,0.115,1.759,0.352,2.812c0.467,0.585,1.64-0.117,1.876,0.703c-0.236,1.405,0.585,3.632-0.94,4.336
				c-4.102,1.287-8.906,2.462-13.361,1.287c-1.055-0.349-1.993-1.054-2.696-2.106c-6.679-2.932-3.747-11.133-4.569-17.112
				l-0.469-0.353h-3.399c0.118,0.936,0.585,1.757,0.938,2.578c1.171,5.393,0.702,12.074-4.336,15.354
				c-3.517,2.11-8.207,1.876-12.543,1.639c-0.349,0.12-0.938,0.237-0.938,0.706l-0.114,5.626l-0.588,0.468
				c-3.984-0.047-6.936-0.043-10.665,0c-0.352-0.468-0.116-1.405-0.821-1.642l-2.345-0.162v-2.77V98.467v-5.275l0.353-0.234h11.251
				c0.467,0.118,1.054,0.587,1.641,0.234c4.688-1.991,11.485-1.756,15.119,2.11c1.171,1.054,1.054,2.93,2.695,3.281l0.235-0.116
				l0.022-5.131l0.68-0.495l3.048-0.117l0.377-0.66c0-3.027,0-5.862,0-8.596c4.69,0,7.914,0,12.213,0L199.594,83.814z"/>
			<path d="M119.992,83.918c0.469,0.94-0.331,2.594,0.725,3.295c0.585,0.356,1.758,0.12,1.523,1.058l-0.019,18.676
				c0,0.352,0.608,0.78,0.957,0.78l7.853,0.117c0.467,0.938,0.145,2.003,0.235,3.047c0.585,0.82,1.99-0.118,2.225,0.82
				c0,2.345,0.031,4.289,0,7.033l-0.235,0.233h-22.032c-1.056,0-0.235-1.523-1.173-1.873c-0.703-0.236-2.142,0.188-2.377-0.75
				c0,0,0-30.397,0-32.436C109.141,83.943,119.992,83.918,119.992,83.918z"/>
			<path fill="#FFFFFF" d="M146.267,86.277c0.585,1.055,0.352,2.813-0.233,3.752c-1.876,2.579-5.627,1.873-8.324,1.521
				c-0.82-0.233-1.64-0.7-1.991-1.521c-0.469-1.291-0.705-3.167,0-4.456c1.756-1.994,4.805-1.523,7.148-1.523
				C144.276,84.287,145.681,84.87,146.267,86.277z"/>
			<path fill="#FFFFFF" d="M198.1,84.444c0.588,0.236,0.558,0.778,0.675,1.129v7.15c-0.117,0.586,0.234,1.055,0.935,0.938h5.393
				c0.82,0.82,0.469,2.459,0.469,3.515c-0.233,0.234-0.233,0.586-0.469,0.705l-6.093,0.115c-0.587,3.165-0.12,6.565-0.234,9.729
				c0.234,0.938,0.468,1.876,1.288,2.461c1.524,1.172,3.752,0.351,5.508,0.351l0.12,0.117v3.986
				c-0.938,1.056-2.465,0.937-3.637,1.288c-3.867,0.703-8.673,1.055-11.952-1.172c-1.642-1.288-2.229-3.164-2.229-5.04l-0.231-11.25
				c0-0.234-0.472-0.469-0.705-0.469l-2.812-0.115c-0.354-0.94-0.117-2.58-0.235-3.869c1.054-0.469,2.461-0.118,3.634-0.469
				l0.262-1.029V84.36C191.595,84.36,194.583,84.444,198.1,84.444z"/>
			<path fill="#FFFFFF" d="M119.544,84.989v18.048l0.117,5.042c0.821,0.938,2.227,0.349,3.283,0.467h7.266l0.118,0.119v7.147
				L129.612,116l-21.085,0.047l-0.118-0.583V84.989c0.118-0.353,0.705-0.236,0.938-0.353l9.402-0.008L119.544,84.989z"/>
			<path d="M271.673,94.014c1.524,2.693,4.102,4.922,3.87,8.321l-0.016,15.244c0,0.235-0.221,0.93-0.456,0.93H264.64
				c-0.467-0.469,0.118-1.759-1.055-1.876c-0.703-0.234-2.237,0.305-2.469-0.633l0.01-13.665c-0.233-0.351-0.587-0.82-1.054-0.939
				c-0.821-0.115-1.291,0.354-1.994,0.588c-0.819,0.82-0.702,2.109-0.702,3.281l-0.071,12.787c-0.116,0.236-0.092,0.414-0.327,0.414
				c-3.665,0-7.15,0-10.989,0c0-0.469,0.137-1.247-0.568-1.598c-0.82-0.235-1.874,0.117-2.577-0.351V93.076
				c0.468-0.587,1.014-0.443,1.835-0.561l9.877-0.044c0.354,0.236,0.827,1.308,1.412,0.839
				C260.306,90.496,267.691,89.794,271.673,94.014z"/>
			<path fill="#FFFFFF" d="M271.792,95.77c0.587,1.526,0.938,3.166,0.938,4.808l-0.038,14.285c-0.351,0.938-1.412,0.904-2.002,1.138
				h-8.597l-0.153-0.958l0.008-13.293c-0.118-1.054-0.82-2.11-1.874-2.697c-0.94-0.469-2.228-0.469-3.048-0.117
				c-1.058,0.351-1.877,1.289-2.345,2.227c-0.352,4.571-0.235,9.261-0.352,13.829c-0.119,0.938-1.126,1.008-1.712,1.008
				c-3.224,0-6.156,0-9.086,0l0.016-22.337l0.51-0.35c3.633,0,6.606,0.023,9.93,0.023c0.467,0.35,0.343,1.264,0.813,1.498
				c2.695-1.523,5.391-2.931,8.787-3.046C266.87,91.67,270.034,92.841,271.792,95.77z"/>
			<path fill="#FFFFFF" d="M233.351,93.31c5.505,2.812,5.154,9.377,4.921,14.885c-0.349,3.165-2.578,6.682-5.745,7.502
				c-5.742,1.287-12.771,1.287-18.517-0.234c-4.453-1.642-5.274-6.917-5.274-11.37c0.471-3.398,0.471-7.15,3.283-9.493
				c4.452-3.283,10.665-2.228,16.175-2.345C229.95,92.372,231.591,92.958,233.351,93.31z"/>
			<path fill="#FFFFFF" d="M180.491,97.882c1.642,4.922,1.876,11.72-1.408,15.939c-2.928,2.811-7.5,2.929-11.483,2.108
				c-1.526-0.232-2.813-1.288-4.221-1.525c-0.469,0.12-0.234,0.586-0.351,0.821l-0.002,7.418c-3.674,0.035-7.348,0-10.747,0
				l-0.032-28.622l0.585-0.243c3.581,0,6.27,0,9.786,0c0.349,0.235,0.057,1.055,0.646,1.055c3.866-2.696,10.196-2.812,14.297-0.468
				C178.733,95.302,179.904,96.59,180.491,97.882z"/>
			<path fill="#FFFFFF" d="M145.778,93.779l0.489,0.586l-0.001,20.969l-0.585,0.712l-9.52-0.002l-0.484-0.931l-0.048-18.8
				c0.179-0.827-0.379-2.066,0.676-2.535C139.704,93.779,142.652,93.779,145.778,93.779z"/>
			<path d="M226.2,97.296c0.938,1.287,0.703,3.165,0.938,4.805c0.116,3.046,0.235,6.327-0.469,9.144
				c-0.47,0.818-1.172,1.522-2.111,1.756c-1.406,0.352-3.046,0-3.868-1.289c-1.054-1.642-0.703-3.867-0.819-5.86
				c0.353-3.164-0.821-7.384,2.346-9.261C223.504,96.122,225.144,96.24,226.2,97.296z"/>
			<path d="M169.357,99.287c1.287,2.228,0.938,5.276,0.938,7.736c-0.353,1.172-0.589,2.225-1.644,2.929
				c-1.288,0.586-3.046,0.586-4.217-0.349c-1.76-2.58-1.171-6.332-0.705-9.258c0.236-0.705,0.82-1.409,1.641-1.761
				C166.662,98.232,168.302,98.232,169.357,99.287z"/>
			<path fill="#DB2F36" d="M225.847,99.639c0.588,1.289,0.353,3.048,0.588,4.454c-0.117,2.112,0.115,5.155-0.702,7.267
				c-0.353,0.351-0.705,0.585-1.175,0.351c-2.11-1.288-1.406-4.221-1.639-6.446c0-1.643,0.117-3.399,0.467-5.041
				c0.235-0.468,0.703-0.704,1.172-0.938C225.028,99.287,225.498,99.405,225.847,99.639z"/>
			<path fill="#DB2F36" d="M169.357,102.101c0.232,2.227,0.82,5.274-0.822,6.916c-0.584,0.231-1.171,0.468-1.756,0.231l-0.236-0.231
				c-0.353-2.348-0.585-5.04,0.236-7.268c0.231-0.234,0.467-0.469,0.82-0.586C168.419,100.928,169.004,101.515,169.357,102.101z"/>
		</g>
	</g>
	<path d="M310.91,168.216c-3.055,0-5.386-2.522-5.386-5.785c0-3.127,2.331-5.75,5.386-5.75c3.039,0,5.372,2.623,5.372,5.75
		C316.282,165.694,313.949,168.216,310.91,168.216z M310.91,169.131c3.473,0,6.286-2.989,6.286-6.701
		c0-3.663-2.813-6.665-6.286-6.665c-3.469,0-6.302,3.001-6.302,6.665C304.608,166.143,307.441,169.131,310.91,169.131z
		 M311.792,162.794c1.312-0.036,2.33-0.639,2.33-2.109c0-0.622-0.276-1.294-0.83-1.604c-0.55-0.348-1.172-0.38-1.795-0.38h-3.213
		v7.477h0.984v-3.384h1.487l2.107,3.384h1.154L311.792,162.794z M309.269,162.016v-2.539h2.021c0.83,0,1.813,0.137,1.813,1.191
		c0,1.173-0.728,1.348-2.538,1.348H309.269z"/>
</g>
</svg>
