<?xml version="1.0" encoding="UTF-8"?>
<svg id="svg3362" xmlns="http://www.w3.org/2000/svg" version="1.1" xmlns:cc="http://creativecommons.org/ns#" xmlns:dc="http://purl.org/dc/elements/1.1/" xmlns:inkscape="http://www.inkscape.org/namespaces/inkscape" xmlns:rdf="http://www.w3.org/1999/02/22-rdf-syntax-ns#" xmlns:sodipodi="http://sodipodi.sourceforge.net/DTD/sodipodi-0.dtd" xmlns:svg="http://www.w3.org/2000/svg" viewBox="0 0 288.9 141.9">
  <!-- Generator: Adobe Illustrator 29.7.0, SVG Export Plug-In . SVG Version: 2.1.1 Build 138)  -->
  <defs>
    <style>
      .st0 {
        fill: #e2007a;
      }
    </style>
  </defs>
  <sodipodi:namedview id="namedview2997" bordercolor="#666666" borderopacity="1" fit-margin-bottom="0" fit-margin-left="0" fit-margin-right="0" fit-margin-top="0" gridtolerance="10" guidetolerance="10" inkscape:current-layer="layer1" inkscape:cx="-114.95727" inkscape:cy="70.932062" inkscape:pageopacity="0" inkscape:pageshadow="2" inkscape:window-height="480" inkscape:window-maximized="0" inkscape:window-width="640" inkscape:window-x="0" inkscape:window-y="0" inkscape:zoom="0.46311557" objecttolerance="10" pagecolor="#ffffff" showgrid="false"/>
  <g id="layer1">
    <path id="path108" class="st0" d="M216.9,67.4h18.1v18.1h-18.1v-18.1ZM162.7,67.4h18.1v18.1h-18.1v-18.1ZM108.5,67.4h18.1v18.1h-18.1v-18.1ZM97,96.4c0,5.7.8,9.5,2.5,11.2,1.4,1.5,3.8,2.4,7.2,2.7,1,0,2.7.1,5.2.1v5h-43.5v-5c3.5,0,6.1-.2,7.7-.5,3.4-.7,5.5-2.7,6.4-5.9.5-1.7.7-4.2.7-7.6V30.7c-7.4.2-13.2,2.7-17.3,7.3-4,4.5-6.4,11.3-7.3,20.6l-4.7-.8.9-31.4h70.8l.9,31.4-4.7.8c-.9-9.2-3.3-16.1-7.3-20.6-4.2-4.7-10-7.1-17.4-7.3v65.6h0ZM54,67.4h18.1v18.1h-18.1v-18.1Z" inkscape:connector-curvature="0" sodipodi:nodetypes="cccccccccccccccsccccccccscccccccccccsccccc"/>
  </g>
</svg>