<?xml version="1.0" encoding="UTF-8"?>
<svg id="svg5" xmlns="http://www.w3.org/2000/svg" version="1.1" xmlns:cc="http://creativecommons.org/ns#" xmlns:dc="http://purl.org/dc/elements/1.1/" xmlns:inkscape="http://www.inkscape.org/namespaces/inkscape" xmlns:rdf="http://www.w3.org/1999/02/22-rdf-syntax-ns#" xmlns:sodipodi="http://sodipodi.sourceforge.net/DTD/sodipodi-0.dtd" xmlns:svg="http://www.w3.org/2000/svg" viewBox="0 0 100 29">
  <!-- Generator: Adobe Illustrator 29.7.0, SVG Export Plug-In . SVG Version: 2.1.1 Build 138)  -->
  <defs>
    <style>
      .st0 {
        fill: #1d4276;
      }
    </style>
  </defs>
  <sodipodi:namedview id="namedview7" bordercolor="#666666" borderopacity="1" gridtolerance="10" guidetolerance="10" inkscape:current-layer="svg5" inkscape:cx="13.571429" inkscape:cy="11.642857" inkscape:pageopacity="0" inkscape:pageshadow="2" inkscape:window-height="1029" inkscape:window-maximized="1" inkscape:window-width="1920" inkscape:window-x="0" inkscape:window-y="0" inkscape:zoom="2.8" objecttolerance="10" pagecolor="#ffffff" showgrid="false"/>
  <g id="Layer_1">
    <path id="path2" class="st0" d="M63.1,7.5c-.6,0-1.1.5-1.1,1.1v11.5c0,.6.5,1.1,1.1,1.1h10.9v-2.8h-8.6v-2.9h7.1v-2.6h-7.1v-2.8h8.5v-2.7h-10.8ZM34.2,13.9h-2.2c-.4,0-.6.4-.4.8l4.2,6.5h4.2l-3.8-5.1c1.8-.2,3.3-1.2,3.3-4.2s-1.4-4.5-4.7-4.5h-7.7c-.6,0-1.1.5-1.1,1.1v12.6h3.6v-11.2h4.6c1.4,0,1.9.6,1.9,1.9s-.6,1.9-1.9,1.9M47.5,20.7c-.1.3-.5.6-.8.6h-2.2c-.4,0-.8-.3-.8-.7l-3.1-13.1h3.7l1.7,8.5,2.7-7.9c.1-.4.5-.6.8-.6h1.9c.4,0,.7.2.8.6l2.7,7.9,1.7-8.5h3.7l-3.1,13.1c0,.4-.4.7-.8.7h-2.2c-.4,0-.7-.2-.8-.6l-2.9-8.1-2.9,8.1Z"/>
  </g>
</svg>